<svg preserveAspectRatio="none" width="100%" height="100%" overflow="visible" style="display: block;" viewBox="0 0 28 18" fill="none" xmlns="http://www.w3.org/2000/svg">
<path id="Vector" opacity="0.2" d="M14 0C4 0 0 9 0 9C0 9 4 18 14 18C24 18 28 9 28 9C28 9 24 0 14 0ZM14 14C13.0111 14 12.0444 13.7068 11.2221 13.1573C10.3999 12.6079 9.75904 11.827 9.3806 10.9134C9.00216 9.99979 8.90315 8.99445 9.09607 8.02455C9.289 7.05464 9.7652 6.16373 10.4645 5.46447C11.1637 4.7652 12.0546 4.289 13.0245 4.09607C13.9945 3.90315 14.9998 4.00216 15.9134 4.3806C16.827 4.75904 17.6079 5.3999 18.1573 6.22215C18.7068 7.04439 19 8.01109 19 9C19 10.3261 18.4732 11.5979 17.5355 12.5355C16.5979 13.4732 15.3261 14 14 14Z" fill="var(--fill-0, #868686)"/>
</svg>
