<svg preserveAspectRatio="none" width="100%" height="100%" overflow="visible" style="display: block;" viewBox="0 0 116 20" fill="none" xmlns="http://www.w3.org/2000/svg">
<g id="text">
<path id="Vector" d="M19.1528 0.00117171C17.3495 -0.0313072 15.7962 0.588617 14.4914 1.86094C13.1837 3.13327 12.5483 4.64708 12.5807 6.39953C12.5483 8.15057 13.1809 9.6686 14.4786 10.9494C15.775 12.2316 17.3255 12.8558 19.1274 12.8219C20.9292 12.8544 22.4911 12.2316 23.8142 10.9494C25.136 9.6686 25.7799 8.15198 25.7488 6.39953C25.7813 4.64708 25.1416 3.13468 23.8269 1.86094C22.5122 0.588617 20.9533 -0.0313072 19.1528 0.00117171ZM21.4207 8.80438C20.8177 9.43278 20.0608 9.74768 19.1528 9.74768C18.2448 9.74768 17.4667 9.43278 16.8708 8.80438C16.2749 8.17598 15.9783 7.38378 15.9783 6.42353C15.9783 5.46329 16.2749 4.64284 16.8708 4.00597C17.4667 3.37051 18.2264 3.05137 19.1528 3.05137C20.0791 3.05137 20.8177 3.37333 21.4207 4.01726C22.0236 4.66261 22.3273 5.46328 22.3273 6.42212C22.3273 7.38095 22.0251 8.17457 21.4207 8.80297V8.80438Z" fill="var(--fill-0, #363636)"/>
<path id="Vector_2" d="M35.8384 7.41614C35.8384 8.10949 35.6238 8.67575 35.1945 9.11351C34.7638 9.55269 34.2187 9.77015 33.5578 9.77015C32.8969 9.77015 32.3222 9.55551 31.8844 9.12622C31.4453 8.69694 31.2264 8.12644 31.2264 7.41614V0.275001H27.8796V7.14359C27.8796 8.84662 28.412 10.222 29.4782 11.2712C30.5457 12.3219 31.9042 12.8458 33.5578 12.8458C35.2114 12.8458 36.5205 12.3176 37.5866 11.2585C38.6528 10.2023 39.1866 8.82968 39.1866 7.14359V0.275001H35.8384V7.41614Z" fill="var(--fill-0, #363636)"/>
<path id="Vector_3" d="M47.2992 5.18362L46.1102 4.68796C45.6145 4.49026 45.2756 4.31657 45.0935 4.16689C44.9113 4.01861 44.8209 3.82939 44.8209 3.59639C44.8209 3.01883 45.2587 2.72934 46.1342 2.72934C47.1425 2.72934 48.0603 3.11768 48.8864 3.89435L50.5725 1.83546C49.4485 0.612559 47.9784 0.00110762 46.1596 0.00110762C44.804 0.00110762 43.7138 0.327309 42.8863 0.981124C42.0602 1.63353 41.6465 2.53023 41.6465 3.67123C41.6465 4.54816 41.9119 5.27117 42.4401 5.84026C42.9696 6.41217 43.8197 6.93607 44.9932 7.4162L46.3065 7.96128C46.8021 8.17592 47.1368 8.35385 47.3105 8.49506C47.4842 8.63627 47.5703 8.82973 47.5703 9.07827C47.5703 9.40871 47.4249 9.66148 47.1368 9.83517C46.8473 10.0075 46.4717 10.095 46.0085 10.095C44.7687 10.095 43.6192 9.54145 42.5615 8.43434L40.8754 10.4678C42.0659 12.055 43.7604 12.8472 45.9591 12.8472C47.3472 12.8472 48.4868 12.5013 49.3807 11.8065C50.2887 11.1117 50.7434 10.1529 50.7434 8.93C50.7434 8.05448 50.4751 7.3357 49.9385 6.77227C49.4005 6.21165 48.5207 5.68069 47.2964 5.18503L47.2992 5.18362Z" fill="var(--fill-0, #363636)"/>
<path id="Vector_4" d="M58.7983 0.00117171C56.995 -0.0313072 55.4416 0.588617 54.1368 1.86094C52.8292 3.13327 52.1937 4.64708 52.2262 6.39953C52.1937 8.15057 52.8264 9.6686 54.1241 10.9494C55.4204 12.2316 56.971 12.8558 58.7728 12.8219C60.5747 12.8544 62.1365 12.2316 63.4597 10.9494C64.7815 9.6686 65.4254 8.15198 65.3943 6.39953C65.4268 4.64708 64.7871 3.13468 63.4724 1.86094C62.1577 0.588617 60.5987 -0.0313072 58.7983 0.00117171ZM61.0661 8.80438C60.4632 9.43278 59.7063 9.74768 58.7983 9.74768C57.8903 9.74768 57.1122 9.43278 56.5163 8.80438C55.9203 8.17598 55.6238 7.38378 55.6238 6.42353C55.6238 5.46329 55.9203 4.64284 56.5163 4.00597C57.1122 3.37051 57.8719 3.05137 58.7983 3.05137C59.7246 3.05137 60.4632 3.37333 61.0661 4.01726C61.6691 4.66261 61.9727 5.46328 61.9727 6.42212C61.9727 7.38095 61.6705 8.17457 61.0661 8.80297V8.80438Z" fill="var(--fill-0, #363636)"/>
<path id="Vector_5" d="M75.4839 7.41614C75.4839 8.10949 75.2692 8.67575 74.8399 9.11351C74.4092 9.55269 73.8642 9.77015 73.2033 9.77015C72.5424 9.77015 71.9677 9.55551 71.5299 9.12622C71.0907 8.69694 70.8719 8.12644 70.8719 7.41614V0.275001H67.5251V7.14359C67.5251 8.84662 68.0575 10.222 69.1236 11.2712C70.1912 12.3219 71.5497 12.8458 73.2033 12.8458C74.8569 12.8458 76.1659 12.3176 77.2321 11.2585C78.2982 10.2023 78.832 8.82968 78.832 7.14359V0.275001H75.4839V7.41614Z" fill="var(--fill-0, #363636)"/>
<path id="Vector_6" d="M84.8094 1.73804V0.275074H81.7352V12.5493H85.0834V6.42489C85.0834 5.38415 85.3771 4.59054 85.9631 4.04546C86.5506 3.49896 87.3555 3.22783 88.3807 3.22783H89.2746V0.276486C88.9611 0.177637 88.5953 0.128213 88.183 0.128213C86.7935 0.128213 85.6694 0.664822 84.8108 1.74086L84.8094 1.73804Z" fill="var(--fill-0, #363636)"/>
<path id="Vector_7" d="M96.8933 3.05271C98.0329 3.05271 99.0171 3.64862 99.8446 4.83764L102.175 3.02729C101.034 1.01077 99.2572 0.00250931 96.8439 0.00250931C95.0095 0.00250931 93.4533 0.622435 92.1824 1.86228C90.9087 3.10213 90.2718 4.61452 90.2718 6.40086C90.2393 8.16885 90.8748 9.69536 92.1824 10.9762C93.4872 12.257 95.0406 12.8811 96.8439 12.8472C98.0173 12.8472 99.0623 12.5789 99.9802 12.0423C100.898 11.5057 101.628 10.7573 102.175 9.79845L99.8446 8.0121C99.0171 9.18699 98.0343 9.77303 96.8933 9.77303C95.9514 9.77303 95.179 9.4553 94.5746 8.81843C93.9716 8.18156 93.6694 7.37665 93.6694 6.40086C93.6694 5.42508 93.9716 4.64418 94.5746 4.00731C95.1775 3.37185 95.95 3.05271 96.8933 3.05271Z" fill="var(--fill-0, #363636)"/>
<path id="Vector_8" d="M115.619 5.70463C115.619 4.08492 115.079 2.72928 113.995 1.63911C112.912 0.547539 111.527 0.00245659 109.841 0.00245659C108.073 -0.0300224 106.552 0.589903 105.278 1.86223C104.006 3.13456 103.385 4.65542 103.419 6.42482C103.386 8.21116 104.026 9.73626 105.341 11.0001C106.655 12.264 108.254 12.8797 110.139 12.8458C111.941 12.8458 113.576 12.2343 115.049 11.0114L113.661 8.73082C112.586 9.55692 111.445 9.97067 110.239 9.97067C109.345 9.97067 108.598 9.75885 107.995 9.33804C107.391 8.91723 106.991 8.31707 106.792 7.5404H115.396C115.545 6.912 115.619 6.30055 115.619 5.70604V5.70463ZM106.792 5.18356C106.974 4.42383 107.329 3.82085 107.858 3.37321C108.388 2.92697 109.008 2.70386 109.718 2.70386C110.428 2.70386 111.085 2.93121 111.589 3.38592C112.095 3.84062 112.355 4.43937 112.37 5.18356H106.791H106.792Z" fill="var(--fill-0, #363636)"/>
<path id="Vector_9" d="M11.3069 0.275001H7.95874V7.41614C7.95874 8.10949 7.7441 8.67575 7.31481 9.11351C6.88411 9.55269 6.33903 9.77015 5.67815 9.77015C5.01728 9.77015 4.44254 9.55551 4.00478 9.12622C3.56561 8.69694 3.34673 8.12644 3.34673 7.41614V0.275001H-1.70423e-05V7.14359C-1.70423e-05 8.84662 0.532355 10.222 1.59851 11.2712C2.66608 12.3219 4.02596 12.8458 5.67815 12.8458C6.51131 12.8458 7.27103 12.7046 7.95874 12.425V13.7029C7.95874 14.3963 7.7441 14.9626 7.31481 15.4003C6.88411 15.8395 6.33903 16.057 5.67815 16.057C5.66968 16.057 5.66121 16.0555 5.65273 16.0555V19.1312C5.66121 19.1312 5.66968 19.1312 5.67815 19.1312C7.29645 19.1312 8.6408 18.603 9.70695 17.5439C10.7731 16.4877 11.3069 15.1151 11.3069 13.429V6.56039V0.275001Z" fill="var(--fill-0, #363636)"/>
</g>
</svg>
