<svg preserveAspectRatio="none" width="100%" height="100%" overflow="visible" style="display: block;" viewBox="0 0 390 138" fill="none" xmlns="http://www.w3.org/2000/svg">
<g id="Group 44">
<path id="line" d="M1 104.74L14.6417 73.064H20.4881L26.3346 71.0842L37.053 85.7346H44.8483L51.1819 82.171L54.1051 76.2316H63.8492L79.9269 40.9916L88.6966 44.9511L97.4662 40.9916L105.749 44.9511H113.057L128.16 65.9368L154.469 14.4625L180.291 34.2603L202.215 19.214L214.882 38.2199L225.113 44.9511L233.396 53.2662L245.576 38.2199L253.858 40.9916L260.192 31.0927H269.449L278.219 26.3412L293.809 28.7169L312.323 11.2949L331.324 21.5897H337.17L345.453 24.3614L358.12 19.214L368.351 14.4625L380.044 1L388.814 21.5897" stroke="var(--stroke-0, #383AD8)" stroke-width="1.0374" stroke-linecap="round"/>
<path id="line_2" d="M1.00003 137.246L9.64373 77.4565L18.5755 106.815L33.5579 73.4969L37.0531 118.24H44.8483L54.5909 121.339L57.4722 108.737H66.404L81.9626 69.1229L90.3182 80.5344L96.6569 69.1229L106.165 80.5344L113.057 77.4565L130.367 85.0298L157.451 46.3L180.291 66.7657L202.215 51.7193L211.042 73.4969L226.889 74.6557L233.396 85.7715L245.617 66.7657L258.582 73.4969L252.82 36.2718L272.124 66.7657L285.378 76.0389L292.004 57.7115L312.461 36.2718L328.02 60.8237L337.24 46.9679L345.883 60.8237L356.256 46.3L368.351 46.9679L380.044 33.5054L387.949 24.5145" stroke="var(--stroke-0, #F25D3B)" stroke-width="1.0374" stroke-linecap="round"/>
</g>
</svg>
