<svg preserveAspectRatio="none" width="100%" height="100%" overflow="visible" style="display: block;" viewBox="0 0 17 14" fill="none" xmlns="http://www.w3.org/2000/svg">
<path id="Vector" d="M3.22874 0.18921C3.17935 0.133527 3.11939 0.0882021 3.05234 0.0558623C2.9853 0.0235226 2.9125 0.004811 2.83818 0.000812272C2.76385 -0.00318646 2.68946 0.00760706 2.61934 0.0325673C2.54921 0.0575276 2.48474 0.0961582 2.42965 0.14622C2.37456 0.196282 2.32996 0.256779 2.29843 0.324206C2.26689 0.391633 2.24906 0.464648 2.24595 0.539019C2.24284 0.61339 2.25453 0.687639 2.28032 0.757461C2.30612 0.827283 2.34552 0.89129 2.39624 0.945772L3.74906 2.43429C1.19531 4.00155 0.0970245 6.41749 0.0485089 6.52718C0.016526 6.59912 0 6.67697 0 6.75569C0 6.83442 0.016526 6.91227 0.0485089 6.98421C0.0731183 7.03976 0.668665 8.36023 1.99265 9.68421C3.75679 11.4476 5.98499 12.38 8.43749 12.38C9.69793 12.3872 10.9456 12.1277 12.0987 11.6185L13.6455 13.3208C13.6949 13.3765 13.7549 13.4218 13.8219 13.4541C13.889 13.4865 13.9618 13.5052 14.0361 13.5092C14.1104 13.5132 14.1848 13.5024 14.2549 13.4774C14.3251 13.4525 14.3895 13.4138 14.4446 13.3638C14.4997 13.3137 14.5443 13.2532 14.5759 13.1858C14.6074 13.1184 14.6252 13.0453 14.6283 12.971C14.6314 12.8966 14.6198 12.8223 14.594 12.7525C14.5682 12.6827 14.5288 12.6187 14.478 12.5642L3.22874 0.18921ZM6.55663 5.52171L9.48656 8.74554C9.04534 8.97765 8.53953 9.05666 8.04855 8.97014C7.55756 8.88363 7.10922 8.6365 6.77391 8.26756C6.43861 7.89862 6.23533 7.42876 6.196 6.93177C6.15668 6.43478 6.28353 5.9388 6.55663 5.52171ZM8.43749 11.255C6.27328 11.255 4.38257 10.4682 2.81742 8.9171C2.17498 8.27865 1.62859 7.55036 1.19531 6.75499C1.52507 6.13694 2.57765 4.40726 4.5246 3.28296L5.79023 4.67163C5.30025 5.29917 5.04789 6.07973 5.07777 6.87535C5.10766 7.67096 5.41785 8.43039 5.95352 9.01941C6.48919 9.60843 7.21585 9.98912 8.00507 10.0942C8.79428 10.1992 9.59522 10.0219 10.2663 9.59351L11.302 10.7326C10.388 11.0833 9.41651 11.2604 8.43749 11.255ZM8.85937 4.54507C8.7128 4.5171 8.58334 4.43205 8.49947 4.30862C8.41561 4.1852 8.38421 4.03352 8.41218 3.88694C8.44015 3.74037 8.52521 3.61091 8.64863 3.52705C8.77205 3.44318 8.92373 3.41178 9.07031 3.43976C9.78722 3.57874 10.44 3.94576 10.9313 4.48607C11.4225 5.02638 11.726 5.71102 11.7963 6.43788C11.8102 6.58641 11.7645 6.73438 11.6693 6.84923C11.5741 6.96408 11.4372 7.03641 11.2887 7.0503C11.2711 7.05134 11.2535 7.05134 11.2359 7.0503C11.0953 7.05091 10.9596 6.99884 10.8555 6.90436C10.7514 6.80987 10.6864 6.67983 10.6734 6.53984C10.6261 6.05636 10.424 5.60108 10.0971 5.24169C9.77029 4.88229 9.33619 4.63798 8.85937 4.54507ZM16.8244 6.98421C16.7948 7.0503 16.0826 8.62741 14.4787 10.0639C14.4239 10.1145 14.3596 10.1538 14.2895 10.1793C14.2194 10.2049 14.1449 10.2162 14.0704 10.2127C13.9958 10.2091 13.9227 10.1908 13.8553 10.1588C13.788 10.1267 13.7276 10.0816 13.6778 10.026C13.6281 9.97036 13.5899 9.90542 13.5654 9.83491C13.541 9.7644 13.5309 9.68973 13.5356 9.61526C13.5403 9.54079 13.5598 9.468 13.5929 9.40113C13.626 9.33426 13.6721 9.27465 13.7285 9.22577C14.5153 8.51886 15.1763 7.68338 15.6832 6.75499C15.249 5.9589 14.7014 5.23011 14.0576 4.59148C12.4924 3.04179 10.6017 2.25499 8.43749 2.25499C7.98149 2.25443 7.5262 2.29136 7.07624 2.36538C7.00307 2.37832 6.92806 2.37664 6.85554 2.36042C6.78303 2.34421 6.71444 2.31378 6.65375 2.27091C6.59306 2.22804 6.54146 2.17357 6.50194 2.11064C6.46242 2.04772 6.43576 1.97758 6.4235 1.90429C6.41124 1.831 6.41362 1.75601 6.43051 1.68365C6.44739 1.61129 6.47845 1.54299 6.52188 1.48269C6.56531 1.4224 6.62026 1.37131 6.68355 1.33238C6.74684 1.29344 6.81722 1.26743 6.89062 1.25585C7.40191 1.17143 7.91929 1.12933 8.43749 1.12999C10.89 1.12999 13.1182 2.06233 14.8823 3.82648C16.2063 5.15046 16.8019 6.47163 16.8265 6.52718C16.8585 6.59912 16.875 6.67697 16.875 6.75569C16.875 6.83442 16.8585 6.91227 16.8265 6.98421H16.8244Z" fill="var(--fill-0, #767676)"/>
</svg>
