<svg preserveAspectRatio="none" width="100%" height="100%" overflow="visible" style="display: block;" viewBox="0 0 17 15" fill="none" xmlns="http://www.w3.org/2000/svg">
<path id="Vector" d="M6.25 6.875C6.25 6.70924 6.31585 6.55027 6.43306 6.43306C6.55027 6.31585 6.70924 6.25 6.875 6.25H9.375C9.54076 6.25 9.69973 6.31585 9.81694 6.43306C9.93415 6.55027 10 6.70924 10 6.875C10 7.04076 9.93415 7.19973 9.81694 7.31694C9.69973 7.43415 9.54076 7.5 9.375 7.5H6.875C6.70924 7.5 6.55027 7.43415 6.43306 7.31694C6.31585 7.19973 6.25 7.04076 6.25 6.875ZM16.25 3.75V13.75C16.25 14.0815 16.1183 14.3995 15.8839 14.6339C15.6495 14.8683 15.3315 15 15 15H1.25C0.918479 15 0.600537 14.8683 0.366116 14.6339C0.131696 14.3995 0 14.0815 0 13.75V3.75C0 3.41848 0.131696 3.10054 0.366116 2.86612C0.600537 2.6317 0.918479 2.5 1.25 2.5H4.375V1.875C4.375 1.37772 4.57254 0.900806 4.92417 0.549175C5.27581 0.197544 5.75272 0 6.25 0H10C10.4973 0 10.9742 0.197544 11.3258 0.549175C11.6775 0.900806 11.875 1.37772 11.875 1.875V2.5H15C15.3315 2.5 15.6495 2.6317 15.8839 2.86612C16.1183 3.10054 16.25 3.41848 16.25 3.75ZM5.625 2.5H10.625V1.875C10.625 1.70924 10.5592 1.55027 10.4419 1.43306C10.3247 1.31585 10.1658 1.25 10 1.25H6.25C6.08424 1.25 5.92527 1.31585 5.80806 1.43306C5.69085 1.55027 5.625 1.70924 5.625 1.875V2.5ZM1.25 3.75V7.00156C3.35971 8.14934 5.72328 8.75044 8.125 8.75C10.5268 8.75043 12.8905 8.14904 15 7.00078V3.75H1.25ZM15 13.75V8.40859C12.8594 9.45574 10.508 10.0001 8.125 10C5.74208 10.0005 3.39057 9.4564 1.25 8.40937V13.75H15Z" fill="var(--fill-0, #767676)"/>
</svg>
