<svg preserveAspectRatio="none" width="100%" height="100%" overflow="visible" style="display: block;" viewBox="0 0 15 13" fill="none" xmlns="http://www.w3.org/2000/svg">
<path id="Vector" opacity="0.2" d="M14.375 0H0.625C0.45924 0 0.300269 0.0658481 0.183058 0.183058C0.0658481 0.300269 0 0.45924 0 0.625V11.875C0 12.0408 0.0658481 12.1997 0.183058 12.3169C0.300269 12.4342 0.45924 12.5 0.625 12.5H14.375C14.5408 12.5 14.6997 12.4342 14.8169 12.3169C14.9342 12.1997 15 12.0408 15 11.875V0.625C15 0.45924 14.9342 0.300269 14.8169 0.183058C14.6997 0.0658481 14.5408 0 14.375 0ZM5 7.5C4.62916 7.5 4.26665 7.39003 3.95831 7.18401C3.64996 6.97798 3.40964 6.68514 3.26773 6.34253C3.12581 5.99992 3.08868 5.62292 3.16103 5.25921C3.23337 4.89549 3.41195 4.5614 3.67417 4.29917C3.9364 4.03695 4.27049 3.85837 4.63421 3.78603C4.99792 3.71368 5.37492 3.75081 5.71753 3.89273C6.06014 4.03464 6.35298 4.27496 6.55901 4.58331C6.76503 4.89165 6.875 5.25416 6.875 5.625C6.875 6.12228 6.67746 6.59919 6.32583 6.95083C5.97419 7.30246 5.49728 7.5 5 7.5Z" fill="var(--fill-0, #767676)"/>
</svg>
