<svg preserveAspectRatio="none" width="100%" height="100%" overflow="visible" style="display: block;" viewBox="0 0 34 45" fill="none" xmlns="http://www.w3.org/2000/svg">
<g id="icon">
<path id="Vector" d="M33.7075 0V3.74497C29.2071 3.74497 25.0794 5.32937 21.8513 7.97005C20.8585 8.78203 19.952 9.69426 19.1442 10.6912C18.2503 11.7955 17.4807 13.0029 16.8538 14.2936C16.2268 13.0029 15.4572 11.7955 14.5633 10.6912C13.7555 9.69426 12.849 8.78203 11.8562 7.97005C8.62811 5.32937 4.50045 3.74497 0 3.74497V0C5.36468 0 10.2874 1.87389 14.1481 5.006C15.1211 5.79396 16.0262 6.66242 16.8538 7.60149C17.6813 6.66242 18.5864 5.79396 19.5608 5.006C23.4216 1.87389 28.3428 0 33.7075 0Z" fill="var(--fill-0, #383AD8)"/>
<path id="Vector_2" d="M14.9813 22.4712C14.9813 25.4013 14.1425 28.1338 12.6894 30.4426C11.941 31.6345 11.0287 32.7119 9.98234 33.6468C7.3346 36.0135 3.83676 37.4524 6.84819e-06 37.4524V33.7061C3.41171 33.7061 6.46614 32.1894 8.52644 29.7931C10.2153 27.8274 11.2363 25.27 11.2363 22.4712C11.2363 19.6723 10.2153 17.115 8.52644 15.1493C6.46614 12.7515 3.41171 11.2349 6.84819e-06 11.2349V7.4899C3.83676 7.4899 7.3346 8.92886 9.98234 11.2956C11.0287 12.2304 11.941 13.3079 12.6894 14.4997C14.1425 16.8085 14.9813 19.541 14.9813 22.4712Z" fill="var(--fill-0, #383AD8)"/>
<path id="Vector_3" d="M33.7075 7.4899V11.2349C30.2958 11.2349 27.2414 12.7515 25.1825 15.1479C23.4922 17.115 22.7254 19.6836 22.4712 22.4712C22.2043 25.4013 21.9572 27.9658 21.0181 30.4426C20.514 31.7771 19.8842 33.0522 19.1442 34.2511C18.4692 35.347 17.7024 36.3806 16.8538 37.3409C16.0262 38.2799 15.1211 39.1484 14.1481 39.9364C10.2874 43.0685 5.36468 44.9424 6.84819e-06 44.9424V41.1974C4.50046 41.1974 8.62812 39.613 11.8562 36.9723C12.849 36.1603 13.7556 35.2481 14.5633 34.2511C15.4572 33.1469 16.2268 31.9395 16.8538 30.6488C18.0541 28.179 18.4834 25.5002 18.7262 22.4712C18.9691 19.4422 19.5651 16.8085 21.0181 14.4997C21.7666 13.3079 22.6802 12.229 23.7266 11.2956C26.3743 8.92744 29.8708 7.4899 33.7075 7.4899Z" fill="var(--fill-0, #383AD8)"/>
</g>
</svg>
