<svg preserveAspectRatio="none" width="100%" height="100%" overflow="visible" style="display: block;" viewBox="0 0 14 16" fill="none" xmlns="http://www.w3.org/2000/svg">
<path id="Logo" d="M13.1947 12.4689C12.9527 13.0279 12.6663 13.5424 12.3344 14.0155C11.8821 14.6604 11.5118 15.1068 11.2263 15.3547C10.7839 15.7616 10.3098 15.97 9.80218 15.9818C9.43775 15.9818 8.99825 15.8781 8.48666 15.6678C7.97339 15.4584 7.5017 15.3547 7.07041 15.3547C6.61808 15.3547 6.13295 15.4584 5.61406 15.6678C5.09437 15.8781 4.67571 15.9878 4.35562 15.9986C3.86882 16.0194 3.3836 15.8051 2.89927 15.3547C2.59015 15.0851 2.20349 14.6229 1.74029 13.9681C1.24332 13.2688 0.834741 12.458 0.514651 11.5336C0.171847 10.5351 0 9.5682 0 8.63213C0 7.55987 0.231697 6.63506 0.695782 5.86007C1.06051 5.23757 1.54573 4.74652 2.15302 4.38604C2.76031 4.02556 3.41649 3.84186 4.12314 3.83011C4.50979 3.83011 5.01684 3.94971 5.64694 4.18476C6.27527 4.42061 6.67872 4.54021 6.8556 4.54021C6.98784 4.54021 7.43603 4.40036 8.19581 4.12156C8.9143 3.863 9.5207 3.75594 10.0175 3.79811C11.3636 3.90675 12.3749 4.4374 13.0475 5.39342C11.8436 6.12288 11.2481 7.14457 11.2599 8.45525C11.2708 9.47616 11.6411 10.3257 12.369 11.0003C12.6989 11.3133 13.0673 11.5553 13.4771 11.7272C13.3882 11.9849 13.2944 12.2318 13.1947 12.4689V12.4689ZM10.1074 0.320091C10.1074 1.12027 9.81502 1.8674 9.23232 2.55894C8.52913 3.38103 7.67859 3.85608 6.75624 3.78112C6.74449 3.68512 6.73768 3.58409 6.73768 3.47792C6.73768 2.70975 7.07209 1.88765 7.66595 1.21547C7.96243 0.875136 8.33951 0.592152 8.79678 0.36641C9.25306 0.144037 9.68465 0.0210593 10.0906 0C10.1024 0.106972 10.1074 0.213951 10.1074 0.320081V0.320091Z" fill="var(--fill-0, white)"/>
</svg>
