<svg preserveAspectRatio="none" width="100%" height="100%" overflow="visible" style="display: block;" viewBox="0 0 16 11" fill="none" xmlns="http://www.w3.org/2000/svg">
<path id="Vector" opacity="0.2" d="M7.875 0C2.25 0 0 5.0625 0 5.0625C0 5.0625 2.25 10.125 7.875 10.125C13.5 10.125 15.75 5.0625 15.75 5.0625C15.75 5.0625 13.5 0 7.875 0ZM7.875 7.875C7.31874 7.875 6.77497 7.71005 6.31246 7.40101C5.84995 7.09197 5.48946 6.65271 5.27659 6.1388C5.06372 5.62488 5.00802 5.05938 5.11654 4.51381C5.22506 3.96824 5.49293 3.4671 5.88626 3.07376C6.2796 2.68043 6.78074 2.41256 7.32631 2.30404C7.87188 2.19552 8.43738 2.25122 8.9513 2.46409C9.46521 2.67696 9.90447 3.03745 10.2135 3.49996C10.5226 3.96247 10.6875 4.50624 10.6875 5.0625C10.6875 5.80842 10.3912 6.52379 9.86374 7.05124C9.33629 7.57868 8.62092 7.875 7.875 7.875Z" fill="var(--fill-0, #767676)"/>
</svg>
