<svg preserveAspectRatio="none" width="100%" height="100%" overflow="visible" style="display: block;" viewBox="0 0 17 17" fill="none" xmlns="http://www.w3.org/2000/svg">
<path id="Vector" d="M8.125 0C6.51803 0 4.94714 0.476523 3.611 1.36931C2.27485 2.2621 1.23344 3.53105 0.618482 5.0157C0.00352044 6.50035 -0.157382 8.13401 0.156123 9.71011C0.469628 11.2862 1.24346 12.7339 2.37976 13.8702C3.51606 15.0065 4.9638 15.7804 6.53989 16.0939C8.11599 16.4074 9.74966 16.2465 11.2343 15.6315C12.719 15.0166 13.9879 13.9752 14.8807 12.639C15.7735 11.3029 16.25 9.73197 16.25 8.125C16.2477 5.97081 15.391 3.90551 13.8677 2.38227C12.3445 0.85903 10.2792 0.00227486 8.125 0ZM3.9125 13.5547C4.36464 12.8476 4.98751 12.2656 5.72369 11.8625C6.45988 11.4595 7.28569 11.2482 8.125 11.2482C8.96432 11.2482 9.79013 11.4595 10.5263 11.8625C11.2625 12.2656 11.8854 12.8476 12.3375 13.5547C11.1331 14.4914 9.6508 14.9999 8.125 14.9999C6.5992 14.9999 5.11693 14.4914 3.9125 13.5547ZM5.625 7.5C5.625 7.00555 5.77163 6.5222 6.04633 6.11107C6.32103 5.69995 6.71148 5.37952 7.16829 5.1903C7.62511 5.00108 8.12778 4.95157 8.61273 5.04804C9.09768 5.1445 9.54314 5.3826 9.89277 5.73223C10.2424 6.08186 10.4805 6.52732 10.577 7.01227C10.6734 7.49723 10.6239 7.99989 10.4347 8.45671C10.2455 8.91352 9.92505 9.30397 9.51393 9.57867C9.10281 9.85338 8.61946 10 8.125 10C7.46196 10 6.82608 9.73661 6.35724 9.26777C5.8884 8.79893 5.625 8.16304 5.625 7.5ZM13.2625 12.6883C12.5654 11.6782 11.5853 10.8967 10.4453 10.4422C11.0577 9.95988 11.5045 9.29874 11.7237 8.5507C11.9429 7.80266 11.9235 7.00492 11.6683 6.2684C11.4131 5.53187 10.9347 4.89319 10.2996 4.44116C9.66461 3.98914 8.90449 3.74623 8.125 3.74623C7.34552 3.74623 6.5854 3.98914 5.95036 4.44116C5.31533 4.89319 4.83693 5.53187 4.58171 6.2684C4.32649 7.00492 4.30712 7.80266 4.52631 8.5507C4.74549 9.29874 5.19234 9.95988 5.80469 10.4422C4.6647 10.8967 3.68456 11.6782 2.9875 12.6883C2.1067 11.6978 1.531 10.4738 1.32973 9.16367C1.12846 7.85356 1.3102 6.5132 1.85306 5.30398C2.39593 4.09477 3.27678 3.06826 4.38954 2.34808C5.5023 1.62789 6.79952 1.24472 8.125 1.24472C9.45049 1.24472 10.7477 1.62789 11.8605 2.34808C12.9732 3.06826 13.8541 4.09477 14.3969 5.30398C14.9398 6.5132 15.1216 7.85356 14.9203 9.16367C14.719 10.4738 14.1433 11.6978 13.2625 12.6883Z" fill="var(--fill-0, #767676)"/>
</svg>
