<svg preserveAspectRatio="none" width="100%" height="100%" overflow="visible" style="display: block;" viewBox="0 0 390 138" fill="none" xmlns="http://www.w3.org/2000/svg">
<g id="Group 44">
<path id="fill" d="M14.6417 73.5883L1 105.495V137.246H388.814V21.7395L380.044 1L368.351 14.5605L358.12 19.3465L345.453 24.5314L337.17 21.7395H331.324L312.323 11.3698L293.809 28.9186L278.219 26.5256L269.449 31.3116H260.192L253.858 41.2825L245.576 38.4907L233.396 53.6465L225.113 45.2709L214.882 38.4907L202.215 19.3465L180.291 34.5023L154.469 14.5605L128.16 66.4093L113.057 45.2709H105.749L97.4662 41.2825L88.6966 45.2709L79.9269 41.2825L63.8492 76.779H54.1051L51.1819 82.7616L44.8483 86.3511H37.053L26.3346 71.5942L20.4881 73.5883H14.6417Z" fill="url(#paint0_linear_720_15967)" fill-opacity="0.35"/>
<path id="line" d="M1 104.74L14.6417 73.064H20.4881L26.3346 71.0842L37.053 85.7346H44.8483L51.1819 82.171L54.1051 76.2316H63.8492L79.9269 40.9916L88.6966 44.9511L97.4662 40.9916L105.749 44.9511H113.057L128.16 65.9368L154.469 14.4625L180.291 34.2603L202.215 19.214L214.882 38.2199L225.113 44.9511L233.396 53.2662L245.576 38.2199L253.858 40.9916L260.192 31.0927H269.449L278.219 26.3412L293.809 28.7169L312.323 11.2949L331.324 21.5897H337.17L345.453 24.3614L358.12 19.214L368.351 14.4625L380.044 1L388.814 21.5897" stroke="var(--stroke-0, #383AD8)" stroke-width="1.0374" stroke-linecap="round"/>
</g>
<defs>
<linearGradient id="paint0_linear_720_15967" x1="194.907" y1="27.1238" x2="194.907" y2="168.996" gradientUnits="userSpaceOnUse">
<stop stop-color="#0033FF"/>
<stop offset="1" stop-color="white" stop-opacity="0"/>
</linearGradient>
</defs>
</svg>
