<svg preserveAspectRatio="none" width="100%" height="100%" overflow="visible" style="display: block;" viewBox="0 0 16 16" fill="none" xmlns="http://www.w3.org/2000/svg">
<path id="Vector" d="M14.8727 10.5045L11.1922 8.85531L11.182 8.85062C10.991 8.7689 10.7825 8.73611 10.5756 8.7552C10.3687 8.7743 10.1698 8.84469 9.99688 8.96C9.97653 8.97344 9.95696 8.98805 9.93829 9.00375L8.03673 10.6248C6.83204 10.0397 5.58829 8.80531 5.00313 7.61625L6.62657 5.68578C6.64219 5.66625 6.65704 5.64672 6.6711 5.62562C6.78394 5.4532 6.85239 5.25556 6.87039 5.05029C6.88838 4.84502 6.85534 4.63848 6.77423 4.44906V4.43969L5.12032 0.752967C5.01309 0.505517 4.8287 0.299385 4.59468 0.165341C4.36067 0.0312965 4.08958 -0.0234699 3.82188 0.00921691C2.76326 0.148519 1.79155 0.668411 1.08824 1.47179C0.384919 2.27517 -0.00190698 3.3071 7.06925e-06 4.37484C7.06925e-06 10.578 5.04688 15.6248 11.25 15.6248C12.3177 15.6268 13.3497 15.2399 14.1531 14.5366C14.9564 13.8333 15.4763 12.8616 15.6156 11.803C15.6484 11.5354 15.5937 11.2643 15.4598 11.0303C15.3259 10.7963 15.12 10.6119 14.8727 10.5045ZM11.25 14.3748C8.59873 14.3719 6.05687 13.3174 4.18214 11.4427C2.3074 9.56797 1.2529 7.02612 1.25001 4.37484C1.24707 3.61194 1.52192 2.87406 2.02324 2.29899C2.52456 1.72392 3.21806 1.35099 3.97423 1.24984C3.97392 1.25296 3.97392 1.2561 3.97423 1.25922L5.61485 4.93109L4.00001 6.8639C3.98362 6.88276 3.96873 6.90288 3.95548 6.92406C3.83791 7.10447 3.76894 7.31218 3.75525 7.52708C3.74157 7.74197 3.78362 7.95676 3.87735 8.15062C4.58516 9.59828 6.04376 11.0459 7.50704 11.753C7.70232 11.8458 7.91835 11.8864 8.13403 11.8708C8.3497 11.8552 8.55763 11.7839 8.73751 11.6639C8.75757 11.6504 8.77687 11.6358 8.79532 11.6202L10.6945 9.99984L14.3664 11.6444C14.3664 11.6444 14.3727 11.6444 14.375 11.6444C14.2751 12.4016 13.9027 13.0965 13.3275 13.5991C12.7524 14.1016 12.0138 14.3774 11.25 14.3748Z" fill="var(--fill-0, #767676)"/>
</svg>
