<svg preserveAspectRatio="none" width="100%" height="100%" overflow="visible" style="display: block;" viewBox="0 0 16 16" fill="none" xmlns="http://www.w3.org/2000/svg">
<g id="Logo">
<path id="Vector" fill-rule="evenodd" clip-rule="evenodd" d="M15.68 8.18194C15.68 7.61466 15.6291 7.06921 15.5345 6.54557H8V9.64012H12.3055C12.12 10.6401 11.5564 11.4874 10.7091 12.0547V14.0619H13.2945C14.8073 12.6692 15.68 10.6183 15.68 8.18194Z" fill="var(--fill-0, #4285F4)"/>
<path id="Vector_2" fill-rule="evenodd" clip-rule="evenodd" d="M8 16C10.16 16 11.9709 15.2836 13.2945 14.0618L10.7091 12.0545C9.99273 12.5345 9.07637 12.8181 8 12.8181C5.91637 12.8181 4.15273 11.4109 3.52364 9.51997H0.850911V11.5927C2.16728 14.2072 4.87273 16 8 16Z" fill="var(--fill-0, #34A853)"/>
<path id="Vector_3" fill-rule="evenodd" clip-rule="evenodd" d="M3.52364 9.51985C3.36364 9.03985 3.27273 8.52712 3.27273 7.99985C3.27273 7.47257 3.36364 6.95985 3.52364 6.47985V4.40712H0.850909C0.309091 5.48712 0 6.70894 0 7.99985C0 9.29075 0.309091 10.5126 0.850909 11.5926L3.52364 9.51985Z" fill="var(--fill-0, #FBBC05)"/>
<path id="Vector_4" fill-rule="evenodd" clip-rule="evenodd" d="M8 3.18182C9.17455 3.18182 10.2291 3.58545 11.0582 4.37818L13.3527 2.08364C11.9673 0.792727 10.1564 0 8 0C4.87273 0 2.16728 1.79273 0.850911 4.40727L3.52364 6.48C4.15273 4.58909 5.91637 3.18182 8 3.18182Z" fill="var(--fill-0, #EA4335)"/>
<g id="Vector_5">
</g>
</g>
</svg>
