<svg preserveAspectRatio="none" width="100%" height="100%" overflow="visible" style="display: block;" viewBox="0 0 12 11" fill="none" xmlns="http://www.w3.org/2000/svg">
<path id="Vector" d="M10.0625 1.3125H8.54656L7.80117 0.194688C7.76124 0.134833 7.70716 0.0857516 7.64372 0.0517921C7.58029 0.0178326 7.50945 4.32058e-05 7.4375 0H3.9375C3.86555 4.32058e-05 3.79471 0.0178326 3.73128 0.0517921C3.66784 0.0857516 3.61376 0.134833 3.57383 0.194688L2.82789 1.3125H1.3125C0.964403 1.3125 0.630564 1.45078 0.384422 1.69692C0.138281 1.94306 0 2.2769 0 2.625V8.75C0 9.0981 0.138281 9.43194 0.384422 9.67808C0.630564 9.92422 0.964403 10.0625 1.3125 10.0625H10.0625C10.4106 10.0625 10.7444 9.92422 10.9906 9.67808C11.2367 9.43194 11.375 9.0981 11.375 8.75V2.625C11.375 2.2769 11.2367 1.94306 10.9906 1.69692C10.7444 1.45078 10.4106 1.3125 10.0625 1.3125ZM10.5 8.75C10.5 8.86603 10.4539 8.97731 10.3719 9.05936C10.2898 9.14141 10.1785 9.1875 10.0625 9.1875H1.3125C1.19647 9.1875 1.08519 9.14141 1.00314 9.05936C0.921094 8.97731 0.875 8.86603 0.875 8.75V2.625C0.875 2.50897 0.921094 2.39769 1.00314 2.31564C1.08519 2.23359 1.19647 2.1875 1.3125 2.1875H3.0625C3.13455 2.18755 3.20549 2.1698 3.26903 2.13584C3.33257 2.10187 3.38673 2.05274 3.42672 1.99281L4.17156 0.875H7.20289L7.94828 1.99281C7.98827 2.05274 8.04243 2.10187 8.10597 2.13584C8.16951 2.1698 8.24045 2.18755 8.3125 2.1875H10.0625C10.1785 2.1875 10.2898 2.23359 10.3719 2.31564C10.4539 2.39769 10.5 2.50897 10.5 2.625V8.75ZM5.6875 3.0625C5.21159 3.0625 4.74636 3.20362 4.35066 3.46803C3.95495 3.73243 3.64654 4.10823 3.46442 4.54792C3.28229 4.9876 3.23464 5.47142 3.32749 5.93819C3.42033 6.40495 3.6495 6.83371 3.98602 7.17023C4.32254 7.50675 4.7513 7.73592 5.21806 7.82876C5.68483 7.92161 6.16865 7.87396 6.60833 7.69183C7.04802 7.50971 7.42382 7.2013 7.68822 6.80559C7.95263 6.40988 8.09375 5.94466 8.09375 5.46875C8.09303 4.83079 7.83928 4.21918 7.38818 3.76807C6.93707 3.31697 6.32546 3.06322 5.6875 3.0625ZM5.6875 7C5.38465 7 5.0886 6.91019 4.83678 6.74194C4.58497 6.57368 4.38871 6.33453 4.27281 6.05473C4.15691 5.77493 4.12659 5.46705 4.18567 5.17002C4.24476 4.87298 4.39059 4.60014 4.60474 4.38599C4.81889 4.17184 5.09173 4.02601 5.38877 3.96692C5.6858 3.90784 5.99368 3.93816 6.27348 4.05406C6.55328 4.16996 6.79243 4.36622 6.96069 4.61803C7.12894 4.86985 7.21875 5.1659 7.21875 5.46875C7.21875 5.87486 7.05742 6.26434 6.77026 6.55151C6.48309 6.83867 6.09361 7 5.6875 7Z" fill="var(--fill-0, #868686)"/>
</svg>
