<svg preserveAspectRatio="none" width="100%" height="100%" overflow="visible" style="display: block;" viewBox="0 0 11 10" fill="none" xmlns="http://www.w3.org/2000/svg">
<path id="Vector" opacity="0.2" d="M9.625 1.3125H7.875L7 0H3.5L2.625 1.3125H0.875C0.642936 1.3125 0.420376 1.40469 0.256282 1.56878C0.0921872 1.73288 0 1.95544 0 2.1875V8.3125C0 8.54456 0.0921872 8.76712 0.256282 8.93122C0.420376 9.09531 0.642936 9.1875 0.875 9.1875H9.625C9.85706 9.1875 10.0796 9.09531 10.2437 8.93122C10.4078 8.76712 10.5 8.54456 10.5 8.3125V2.1875C10.5 1.95544 10.4078 1.73288 10.2437 1.56878C10.0796 1.40469 9.85706 1.3125 9.625 1.3125ZM5.25 7C4.86062 7 4.47998 6.88453 4.15622 6.66821C3.83246 6.45188 3.58012 6.1444 3.43111 5.78466C3.2821 5.42492 3.24311 5.02907 3.31908 4.64717C3.39504 4.26527 3.58255 3.91447 3.85788 3.63913C4.13322 3.3638 4.48402 3.17629 4.86592 3.10033C5.24782 3.02436 5.64367 3.06335 6.00341 3.21236C6.36315 3.36137 6.67063 3.61371 6.88696 3.93747C7.10328 4.26123 7.21875 4.64187 7.21875 5.03125C7.21875 5.55339 7.01133 6.05415 6.64212 6.42337C6.2729 6.79258 5.77214 7 5.25 7Z" fill="var(--fill-0, #767676)"/>
</svg>
