<svg preserveAspectRatio="none" width="100%" height="100%" overflow="visible" style="display: block;" viewBox="0 0 983 1310" fill="none" xmlns="http://www.w3.org/2000/svg">
<g id="icon">
<path id="Vector" d="M982.31 1.90521e-06L982.31 109.136C851.157 109.136 730.868 155.31 636.794 232.265C607.863 255.927 581.444 282.512 557.904 311.566C531.855 343.747 509.427 378.932 491.155 416.546C472.883 378.932 450.455 343.747 424.406 311.566C400.866 282.512 374.447 255.927 345.516 232.265C251.442 155.31 131.153 109.136 1.20779e-06 109.136L2.35286e-06 -6.65729e-07C156.338 -2.56555e-07 299.796 54.6094 412.307 145.886C440.661 168.849 467.04 194.158 491.155 221.524C515.27 194.158 541.649 168.849 570.044 145.886C682.555 54.6094 825.972 1.49604e-06 982.31 1.90521e-06Z" fill="var(--fill-0, #EDF3FF)" fill-opacity="0.6"/>
<path id="Vector_2" d="M436.587 654.859C436.587 740.25 412.142 819.88 369.796 887.165C347.986 921.897 321.401 953.297 290.907 980.54C213.746 1049.51 111.811 1091.45 8.28369e-05 1091.45L8.39824e-05 982.268C99.4245 982.268 188.437 938.07 248.479 868.234C297.697 810.95 327.451 736.423 327.451 654.859C327.451 573.294 297.697 498.767 248.479 441.483C188.437 371.606 99.4245 327.408 9.08532e-05 327.408L9.19982e-05 218.272C111.811 218.272 213.746 260.206 290.907 329.178C321.401 356.421 347.986 387.82 369.796 422.553C412.142 489.837 436.587 569.467 436.587 654.859Z" fill="var(--fill-0, #EDF3FF)" fill-opacity="0.6"/>
<path id="Vector_3" d="M982.31 218.272L982.31 327.408C882.886 327.408 793.873 371.606 733.873 441.442C684.613 498.767 662.267 573.624 654.86 654.859C647.082 740.25 639.88 814.983 612.514 887.165C597.823 926.054 579.468 963.214 557.905 998.153C538.234 1030.09 515.888 1060.21 491.155 1088.19C467.04 1115.56 440.661 1140.87 412.307 1163.83C299.796 1255.11 156.338 1309.72 8.05467e-05 1309.72L8.16918e-05 1200.58C131.153 1200.58 251.442 1154.41 345.517 1077.45C374.447 1053.79 400.867 1027.21 424.406 998.153C450.455 965.972 472.883 930.786 491.155 893.173C526.135 821.197 538.645 743.131 545.723 654.859C552.802 566.587 570.168 489.837 612.514 422.553C634.325 387.82 660.95 356.38 691.444 329.178C768.605 260.165 870.499 218.272 982.31 218.272Z" fill="var(--fill-0, #EDF3FF)" fill-opacity="0.6"/>
</g>
</svg>
