<svg width="18" height="18" viewBox="0 0 18 18" xmlns="http://www.w3.org/2000/svg">
  <path
    d="M14.25 10.1895V7.5C14.25 5.08725 12.6112 3.05475 10.3912 2.4435C10.1715 1.89 9.6345 1.5 9 1.5C8.3655 1.5 7.8285 1.89 7.60875 2.4435C5.38875 3.0555 3.75 5.08725 3.75 7.5V10.1895L2.46975 11.4698C2.32875 11.61 2.25 11.8005 2.25 12V13.5C2.25 13.9148 2.58525 14.25 3 14.25H15C15.4148 14.25 15.75 13.9148 15.75 13.5V12C15.75 11.8005 15.6713 11.61 15.5303 11.4698L14.25 10.1895ZM14.25 12.75H3.75V12.3105L5.03025 11.0302C5.17125 10.89 5.25 10.6995 5.25 10.5V7.5C5.25 5.43225 6.93225 3.75 9 3.75C11.0677 3.75 12.75 5.43225 12.75 7.5V10.5C12.75 10.6995 12.8287 10.89 12.9697 11.0302L14.25 12.3105V12.75ZM9 16.5C9.98325 16.5 10.8053 15.8745 11.1135 15H6.8865C7.19475 15.8745 8.01675 16.5 9 16.5Z" />
</svg>