<?xml version="1.0" encoding="utf-8"?>
<!-- Generator: Adobe Illustrator 27.4.0, SVG Export Plug-In . SVG Version: 6.00 Build 0)  -->
<svg version="1.1" id="Layer_1" xmlns="http://www.w3.org/2000/svg" xmlns:xlink="http://www.w3.org/1999/xlink" x="0px" y="0px"
	 viewBox="0 0 190.7 233.8" style="enable-background:new 0 0 190.7 233.8;" xml:space="preserve">
<style type="text/css">
	.st0{fill:#FFFFFF;}
</style>
<g id="logo" transform="translate(-626 -304.355)">
	<g>
		<path class="st0" d="M805.1,527.5c0-1.3,0.3-2.3,1-3.1c0.7-0.8,1.5-1.1,2.6-1.1c1,0,1.8,0.4,2.5,1.1s1,1.8,1.1,3.2H805.1z
			 M810.8,534.4c-0.5,0.4-1.1,0.6-1.9,0.6c-1.1,0-2-0.4-2.8-1.2c-0.7-0.8-1.1-1.9-1.2-3.3h12c0.1-3.7-0.7-6.4-2.2-8.2
			c-1.6-1.8-3.7-2.7-6.4-2.7c-2.4,0-4.4,0.9-6,2.6c-1.6,1.7-2.4,4.1-2.4,7.1c0,2.5,0.6,4.6,1.8,6.3c1.5,2.1,3.9,3.1,7,3.1
			c2,0,3.7-0.5,5-1.4c1.3-0.9,2.3-2.3,2.9-4l-4.8-0.8C811.7,533.3,811.3,534,810.8,534.4z M792.5,532.6c0-3.1,0.1-5.1,0.4-6.1
			c0.3-1,0.6-1.6,1.1-2c0.5-0.4,1-0.6,1.7-0.6c0.7,0,1.4,0.3,2.3,0.8l1.5-4.2c-1-0.6-2.1-0.9-3.2-0.9c-0.8,0-1.5,0.2-2.1,0.6
			c-0.6,0.4-1.3,1.2-2.1,2.4V520h-4.5v18.1h4.8V532.6z M771.6,525c0.9-1,1.9-1.4,3.2-1.4c1.3,0,2.3,0.5,3.2,1.4
			c0.8,1,1.3,2.3,1.3,4.1c0,1.8-0.4,3.2-1.3,4.2c-0.8,1-1.9,1.4-3.2,1.4c-1.3,0-2.3-0.5-3.2-1.4s-1.3-2.3-1.3-4.1
			C770.3,527.3,770.7,525.9,771.6,525z M766.5,534.1c0.8,1.5,1.9,2.6,3.4,3.3c1.5,0.8,3.1,1.1,4.8,1.1c2.7,0,4.9-0.9,6.7-2.7
			c1.8-1.8,2.7-4.1,2.7-6.8c0-2.7-0.9-5-2.6-6.8c-1.8-1.8-4-2.7-6.8-2.7c-1.8,0-3.4,0.4-4.8,1.2c-1.4,0.8-2.6,1.9-3.3,3.4
			c-0.8,1.5-1.2,3-1.2,4.6C765.4,530.9,765.8,532.7,766.5,534.1z M760,521c-1.3-1-3.1-1.4-5.3-1.4c-2.7,0-4.8,0.8-6.4,2.5
			c-1.6,1.7-2.4,4-2.4,7c0,3,0.8,5.3,2.4,7c1.6,1.7,3.7,2.5,6.3,2.5c2.3,0,4.2-0.6,5.6-1.7c1.4-1.1,2.3-2.7,2.8-4.9l-4.7-0.8
			c-0.2,1.3-0.6,2.2-1.2,2.7c-0.6,0.5-1.3,0.8-2.2,0.8c-1.2,0-2.2-0.4-2.9-1.3s-1.1-2.4-1.1-4.6c0-1.9,0.4-3.3,1.1-4.1
			c0.7-0.8,1.7-1.2,2.9-1.2c0.9,0,1.6,0.2,2.2,0.7c0.6,0.5,0.9,1.2,1.1,2.1l4.7-0.9C762.3,523.4,761.3,522,760,521z M728.7,537.1
			c1.4,1,3.4,1.5,5.9,1.5c2.7,0,4.8-0.6,6.2-1.8c1.4-1.2,2.1-2.6,2.1-4.3c0-1.5-0.5-2.7-1.5-3.6c-1-0.8-2.8-1.6-5.4-2.1
			c-2.6-0.6-4.1-1-4.5-1.4c-0.3-0.2-0.5-0.5-0.5-0.9c0-0.4,0.2-0.7,0.5-1c0.5-0.4,1.5-0.5,2.7-0.5c1,0,1.8,0.2,2.3,0.6
			c0.5,0.4,0.9,0.9,1.1,1.6l4.5-0.8c-0.5-1.6-1.3-2.8-2.5-3.6c-1.2-0.8-3.1-1.2-5.5-1.2c-2.6,0-4.5,0.5-5.8,1.6
			c-1.2,1.1-1.9,2.4-1.9,4c0,1.7,0.7,3.1,2.2,4.1c1,0.7,3.5,1.5,7.4,2.3c0.8,0.2,1.4,0.4,1.6,0.6c0.2,0.2,0.3,0.5,0.3,0.9
			c0,0.5-0.2,1-0.6,1.3c-0.6,0.5-1.6,0.7-2.8,0.7c-1.1,0-2-0.2-2.6-0.7c-0.6-0.5-1-1.2-1.2-2.1l-4.8,0.7
			C726.3,534.7,727.2,536.1,728.7,537.1z M718.5,532.6c0-3.1,0.1-5.1,0.4-6.1c0.3-1,0.6-1.6,1.1-2c0.5-0.4,1-0.6,1.7-0.6
			c0.7,0,1.4,0.3,2.3,0.8l1.5-4.2c-1-0.6-2.1-0.9-3.2-0.9c-0.8,0-1.5,0.2-2.1,0.6c-0.6,0.4-1.3,1.2-2.1,2.4V520h-4.5v18.1h4.8V532.6
			z M698.1,527.5c0-1.3,0.3-2.3,1-3.1c0.7-0.8,1.5-1.1,2.6-1.1c1,0,1.8,0.4,2.5,1.1s1,1.8,1.1,3.2H698.1z M703.8,534.4
			c-0.5,0.4-1.1,0.6-1.9,0.6c-1.1,0-2-0.4-2.8-1.2c-0.7-0.8-1.1-1.9-1.2-3.3h12c0.1-3.7-0.7-6.4-2.2-8.2c-1.6-1.8-3.7-2.7-6.4-2.7
			c-2.4,0-4.4,0.9-6,2.6c-1.6,1.7-2.4,4.1-2.4,7.1c0,2.5,0.6,4.6,1.8,6.3c1.5,2.1,3.9,3.1,7,3.1c2,0,3.7-0.5,5-1.4
			c1.3-0.9,2.3-2.3,2.9-4l-4.8-0.8C704.7,533.3,704.3,534,703.8,534.4z M678.1,524.6c0.8-0.9,1.7-1.4,2.9-1.4c1.2,0,2.1,0.5,2.9,1.4
			c0.8,0.9,1.1,2.4,1.1,4.5c0,1.9-0.4,3.3-1.2,4.2c-0.8,0.9-1.7,1.4-2.8,1.4c-1.4,0-2.5-0.6-3.2-1.9c-0.5-0.9-0.8-2.3-0.8-4.2
			C676.9,526.9,677.3,525.5,678.1,524.6z M689.7,513.1h-4.8v9c-1.5-1.7-3.2-2.5-5.3-2.5c-2.2,0-4,0.8-5.5,2.4
			c-1.4,1.6-2.2,3.9-2.2,7c0,3,0.7,5.4,2.2,7c1.5,1.7,3.3,2.5,5.4,2.5c1,0,2-0.3,3.1-0.8c1-0.5,1.9-1.3,2.6-2.3v2.7h4.5V513.1z
			 M668.2,526.9c0-1.4-0.1-2.5-0.3-3.2s-0.5-1.4-0.9-2c-0.5-0.6-1.1-1.1-2-1.5c-0.9-0.4-1.8-0.6-2.9-0.6c-2.4,0-4.4,1-6,3.1V520
			h-4.5v18.1h4.8v-8.2c0-2,0.1-3.4,0.4-4.2s0.7-1.4,1.4-1.8c0.7-0.5,1.4-0.7,2.2-0.7c0.6,0,1.2,0.2,1.7,0.5c0.5,0.3,0.8,0.8,1,1.3
			c0.2,0.6,0.3,1.8,0.3,3.8v9.3h4.8V526.9z M626.4,526.5c0,2.8,0.2,4.9,0.5,6.4c0.2,1,0.7,1.9,1.4,2.8s1.7,1.6,2.9,2.2
			c1.2,0.6,3.1,0.8,5.4,0.8c2,0,3.6-0.3,4.8-0.8s2.2-1.2,2.9-2c0.7-0.9,1.2-1.9,1.5-3.1c0.3-1.2,0.4-3.4,0.4-6.4v-13.2h-5.1V527
			c0,2-0.1,3.4-0.2,4.3c-0.1,0.9-0.6,1.6-1.3,2.2c-0.7,0.6-1.8,0.9-3.2,0.9c-1.4,0-2.5-0.3-3.3-0.9c-0.8-0.6-1.3-1.4-1.5-2.5
			c-0.1-0.6-0.2-2-0.2-4.2v-13.6h-5.1V526.5z"/>
	</g>
	<g id="Group_16928" transform="translate(639 304.355)">
		<path id="Path_15" class="st0" d="M89.6,90.4h72.3v72.3H89.6V90.4z"/>
		<path id="Path_13" class="st0" d="M161.9,0v72.3H89.6L161.9,0z"/>
		<path id="Rectangle_37" class="st0" d="M35.3,90.4h0.3c19.9,0,36,16.1,36,36v0.3c0,19.9-16.1,36-36,36h-0.3c-19.9,0-36-16.1-36-36
			v-0.3C-0.7,106.5,15.4,90.4,35.3,90.4z"/>
		<path id="Path_14" class="st0" d="M-0.7,0v72.3h72.3L-0.7,0z"/>
	</g>
</g>
</svg>
