<svg width="114" height="43" viewBox="0 0 114 43" fill="none" xmlns="http://www.w3.org/2000/svg">
<path d="M23.3893 24.7668C23.3893 23.9583 24.0448 23.3029 24.8533 23.3029H40.7028C41.5113 23.3029 42.1668 23.9583 42.1668 24.7668V40.5469C42.1668 41.3555 41.5113 42.0109 40.7028 42.0109H24.8533C24.0448 42.0109 23.3893 41.3555 23.3893 40.5469V24.7668Z" fill="#B1B3B2"/>
<path d="M39.6695 2.48798C40.5926 1.56837 42.1668 2.22213 42.1668 3.52507V17.2441C42.1668 18.0526 41.5113 18.708 40.7028 18.708H26.9329C25.6274 18.708 24.9748 17.1284 25.8997 16.207L39.6695 2.48798Z" fill="#00BEFF"/>
<path d="M9.38876 23.3029H9.38865C4.20344 23.3029 0 27.4908 0 32.6568V32.6569C0 37.823 4.20344 42.0109 9.38865 42.0109H9.38876C14.574 42.0109 18.7774 37.823 18.7774 32.6569V32.6568C18.7774 27.4908 14.574 23.3029 9.38876 23.3029Z" fill="#00BEFF"/>
<path d="M2.49727 2.48798C1.57425 1.56837 6.10352e-05 2.22213 6.10352e-05 3.52507V17.2441C6.10352e-05 18.0526 0.655496 18.708 1.46402 18.708H15.2339C16.5394 18.708 17.192 17.1284 16.2672 16.207L2.49727 2.48798Z" fill="#B1B3B2"/>
<path d="M113.629 24.3774H106.333C106.461 25.1454 106.741 25.6974 107.173 26.0334C107.605 26.3694 108.221 26.5374 109.021 26.5374C109.597 26.5374 110.181 26.4414 110.773 26.2494C111.365 26.0574 111.893 25.7934 112.357 25.4574L113.437 28.2654C112.845 28.6974 112.133 29.0414 111.301 29.2974C110.469 29.5374 109.637 29.6574 108.805 29.6574C107.445 29.6574 106.269 29.4094 105.277 28.9134C104.285 28.4174 103.517 27.7054 102.973 26.7774C102.445 25.8494 102.181 24.7614 102.181 23.5134C102.181 22.3294 102.429 21.2734 102.925 20.3454C103.437 19.4014 104.141 18.6734 105.037 18.1614C105.949 17.6334 106.973 17.3694 108.109 17.3694C109.805 17.3694 111.149 17.9134 112.141 19.0014C113.133 20.0734 113.629 21.5454 113.629 23.4174V24.3774ZM108.229 20.2494C107.093 20.2494 106.445 20.9534 106.285 22.3614H110.053C109.957 20.9534 109.349 20.2494 108.229 20.2494Z" fill="#424242"/>
<path d="M100.237 12.5454V29.4654H96.0366V27.8574C95.7006 28.4174 95.2046 28.8574 94.5486 29.1774C93.9086 29.4974 93.1966 29.6574 92.4126 29.6574C91.4046 29.6574 90.5006 29.4014 89.7006 28.8894C88.9166 28.3614 88.3006 27.6254 87.8526 26.6814C87.4046 25.7374 87.1806 24.6574 87.1806 23.4414C87.1806 22.2254 87.3966 21.1614 87.8286 20.2494C88.2766 19.3214 88.8926 18.6094 89.6766 18.1134C90.4766 17.6174 91.3886 17.3694 92.4126 17.3694C93.1646 17.3694 93.8526 17.5214 94.4766 17.8254C95.1166 18.1294 95.6126 18.5374 95.9646 19.0494V12.5454H100.237ZM93.7086 26.4654C94.4606 26.4654 95.0366 26.2094 95.4366 25.6974C95.8366 25.1854 96.0366 24.4494 96.0366 23.4894C96.0366 22.5454 95.8366 21.8254 95.4366 21.3294C95.0366 20.8174 94.4606 20.5614 93.7086 20.5614C92.9726 20.5614 92.4046 20.8094 92.0046 21.3054C91.6046 21.8014 91.4046 22.5134 91.4046 23.4414C91.4046 24.4014 91.6046 25.1454 92.0046 25.6734C92.4206 26.2014 92.9886 26.4654 93.7086 26.4654Z" fill="#424242"/>
<path d="M79.294 29.6574C77.998 29.6574 76.854 29.4094 75.862 28.9134C74.886 28.4014 74.126 27.6814 73.582 26.7534C73.054 25.8254 72.79 24.7374 72.79 23.4894C72.79 22.2414 73.054 21.1614 73.582 20.2494C74.126 19.3214 74.886 18.6094 75.862 18.1134C76.838 17.6174 77.982 17.3694 79.294 17.3694C80.606 17.3694 81.75 17.6174 82.726 18.1134C83.702 18.6094 84.454 19.3214 84.982 20.2494C85.526 21.1614 85.798 22.2414 85.798 23.4894C85.798 24.7374 85.526 25.8254 84.982 26.7534C84.454 27.6814 83.702 28.4014 82.726 28.9134C81.75 29.4094 80.606 29.6574 79.294 29.6574ZM79.294 26.4654C80.814 26.4654 81.574 25.4734 81.574 23.4894C81.574 21.5054 80.814 20.5134 79.294 20.5134C77.774 20.5134 77.014 21.5054 77.014 23.4894C77.014 25.4734 77.774 26.4654 79.294 26.4654Z" fill="#424242"/>
<path d="M65.8067 29.6814C64.0467 29.6814 62.5107 29.3214 61.1987 28.6014C59.9027 27.8814 58.9027 26.8654 58.1987 25.5534C57.5107 24.2414 57.1667 22.7214 57.1667 20.9934C57.1667 19.2654 57.5107 17.7534 58.1987 16.4574C58.9027 15.1454 59.9027 14.1294 61.1987 13.4094C62.5107 12.6894 64.0467 12.3294 65.8067 12.3294C66.9107 12.3294 67.9747 12.4974 68.9987 12.8334C70.0387 13.1694 70.8867 13.6174 71.5427 14.1774L70.1747 17.2974C68.7827 16.3214 67.3587 15.8334 65.9027 15.8334C64.5267 15.8334 63.4707 16.2654 62.7347 17.1294C62.0147 17.9934 61.6547 19.2814 61.6547 20.9934C61.6547 22.7054 62.0147 24.0014 62.7347 24.8814C63.4707 25.7454 64.5267 26.1774 65.9027 26.1774C67.3587 26.1774 68.7827 25.6894 70.1747 24.7134L71.5427 27.8334C70.8867 28.3934 70.0387 28.8414 68.9987 29.1774C67.9747 29.5134 66.9107 29.6814 65.8067 29.6814Z" fill="#424242"/>
</svg>
