<svg preserveAspectRatio="none" width="100%" height="100%" overflow="visible" style="display: block;" viewBox="0 0 15 15" fill="none" xmlns="http://www.w3.org/2000/svg">
<path id="Vector" opacity="0.2" d="M14.3703 11.0997C14.2489 12.0067 13.8023 12.8389 13.1133 13.4413C12.4244 14.0437 11.5402 14.3754 10.625 14.3747C7.80708 14.3747 5.10457 13.2553 3.11199 11.2627C1.11942 9.27011 1.10538e-06 6.5676 1.10538e-06 3.74968C-0.000698803 2.83452 0.330999 1.95026 0.933408 1.26134C1.53582 0.572425 2.36793 0.125741 3.275 0.00436499C3.40909 -0.0115645 3.54473 0.0163604 3.66162 0.0839604C3.77851 0.15156 3.87037 0.2552 3.92344 0.379365L5.57422 4.06686C5.61478 4.16157 5.6313 4.26484 5.6223 4.36748C5.6133 4.47012 5.57907 4.56894 5.52266 4.65515L3.85313 6.6403C3.7939 6.72966 3.75888 6.83286 3.75149 6.93981C3.74409 7.04676 3.76458 7.1538 3.81094 7.25046C4.45703 8.57311 5.82422 9.9239 7.15078 10.5637C7.24795 10.6099 7.35548 10.6299 7.46276 10.6218C7.57003 10.6138 7.67334 10.5778 7.7625 10.5176L9.71563 8.85358C9.80218 8.79599 9.90174 8.76089 10.0053 8.75148C10.1088 8.74207 10.2131 8.75863 10.3086 8.79968L13.993 10.4505C14.1177 10.5032 14.222 10.595 14.29 10.7121C14.3581 10.8292 14.3862 10.9652 14.3703 11.0997Z" fill="var(--fill-0, #767676)"/>
</svg>
