<svg preserveAspectRatio="none" width="100%" height="100%" overflow="visible" style="display: block;" viewBox="0 0 18 18" fill="none" xmlns="http://www.w3.org/2000/svg">
<path id="Vector" d="M7 0H1C0.447 0 0 0.447 0 1V7C0 7.553 0.447 8 1 8H7C7.553 8 8 7.553 8 7V1C8 0.447 7.553 0 7 0ZM6 6H2V2H6V6ZM17 0H11C10.447 0 10 0.447 10 1V7C10 7.553 10.447 8 11 8H17C17.553 8 18 7.553 18 7V1C18 0.447 17.553 0 17 0ZM16 6H12V2H16V6ZM7 10H1C0.447 10 0 10.447 0 11V17C0 17.553 0.447 18 1 18H7C7.553 18 8 17.553 8 17V11C8 10.447 7.553 10 7 10ZM6 16H2V12H6V16ZM14 10C11.794 10 10 11.794 10 14C10 16.206 11.794 18 14 18C16.206 18 18 16.206 18 14C18 11.794 16.206 10 14 10ZM14 16C12.897 16 12 15.103 12 14C12 12.897 12.897 12 14 12C15.103 12 16 12.897 16 14C16 15.103 15.103 16 14 16Z" fill="var(--fill-0, #9FA1A4)"/>
</svg>
