<svg preserveAspectRatio="none" width="100%" height="100%" overflow="visible" style="display: block;" viewBox="0 0 17 17" fill="none" xmlns="http://www.w3.org/2000/svg">
<path id="Vector" d="M8.12606 0C7.9603 0 7.80132 0.065848 7.68411 0.183058C7.5669 0.300268 7.50106 0.45924 7.50106 0.625V5C7.50106 5.16576 7.5669 5.32473 7.68411 5.44194C7.80132 5.55915 7.9603 5.625 8.12606 5.625C8.67637 5.62512 9.21126 5.80682 9.64779 6.14192C10.0843 6.47701 10.3981 6.94678 10.5404 7.47836C10.6828 8.00994 10.6457 8.57364 10.4351 9.08203C10.2244 9.59042 9.85187 10.0151 9.37525 10.2902C8.89864 10.5653 8.34457 10.6755 7.79897 10.6036C7.25337 10.5317 6.74674 10.2818 6.35763 9.89267C5.96852 9.50352 5.71869 8.99685 5.64687 8.45125C5.57506 7.90564 5.68527 7.35158 5.96043 6.875C6.00148 6.80391 6.02813 6.72542 6.03884 6.64402C6.04956 6.56263 6.04413 6.47992 6.02288 6.40063C6.00162 6.32133 5.96495 6.247 5.91496 6.18188C5.86497 6.11675 5.80263 6.06212 5.73152 6.02109L1.94246 3.83359C1.87137 3.79254 1.79288 3.76589 1.71149 3.75518C1.63009 3.74447 1.54738 3.74989 1.46809 3.77115C1.38879 3.79241 1.31446 3.82908 1.24934 3.87907C1.18422 3.92906 1.12958 3.99139 1.08855 4.0625C0.194282 5.61143 -0.163919 7.41215 0.069505 9.1854C0.302929 10.9586 1.11493 12.6053 2.37958 13.8701C3.64424 15.1348 5.29087 15.9469 7.0641 16.1804C8.83733 16.414 10.6381 16.0559 12.1871 15.1617C13.736 14.2675 14.9467 12.8873 15.6313 11.2349C16.3159 9.58256 16.4361 7.7505 15.9734 6.02285C15.5106 4.2952 14.4907 2.76852 13.0719 1.67956C11.6531 0.590603 9.9146 0.000229717 8.12606 0ZM1.88309 5.24219L4.61043 6.81719C4.45523 7.23574 4.37586 7.6786 4.37606 8.125C4.37606 8.24453 4.38231 8.35938 4.39324 8.47813L1.35106 9.29688C1.11381 7.92262 1.29933 6.50872 1.88309 5.24219ZM1.67449 10.5008L4.72137 9.68516C4.97611 10.2404 5.36239 10.7252 5.84675 11.0976C6.33111 11.4699 6.89894 11.7185 7.50106 11.8219V14.9711C6.20717 14.8512 4.97357 14.3678 3.94261 13.5768C2.91165 12.7859 2.12537 11.7195 1.67449 10.5008ZM8.75106 14.9711V11.8219C9.62451 11.6738 10.4173 11.2213 10.989 10.5446C11.5607 9.86782 11.8744 9.01052 11.8744 8.12461C11.8744 7.2387 11.5607 6.3814 10.989 5.70465C10.4173 5.02789 9.62451 4.57539 8.75106 4.42734V1.27813C10.459 1.43417 12.047 2.22297 13.2032 3.48968C14.3595 4.75639 15.0005 6.40953 15.0005 8.12461C15.0005 9.83969 14.3595 11.4928 13.2032 12.7595C12.047 14.0263 10.459 14.815 8.75106 14.9711Z" fill="var(--fill-0, #767676)"/>
</svg>
