<svg preserveAspectRatio="none" width="100%" height="100%" overflow="visible" style="display: block;" viewBox="0 0 12 11" fill="none" xmlns="http://www.w3.org/2000/svg">
<path id="Vector" d="M9.72836 1.67887C8.9338 0.87966 7.91987 0.334309 6.81506 0.111922C5.71025 -0.110464 4.56429 0.000124987 3.52239 0.429675C2.48049 0.859226 1.58956 1.5884 0.962489 2.5248C0.33542 3.4612 0.000440844 4.56268 0 5.68965V8.75215C0 9.10025 0.138281 9.43409 0.384422 9.68023C0.630564 9.92637 0.964403 10.0647 1.3125 10.0647H2.1875C2.5356 10.0647 2.86944 9.92637 3.11558 9.68023C3.36172 9.43409 3.5 9.10025 3.5 8.75215V6.56465C3.5 6.21655 3.36172 5.88271 3.11558 5.63657C2.86944 5.39043 2.5356 5.25215 2.1875 5.25215H0.894688C1.00384 4.05646 1.556 2.94476 2.44276 2.1353C3.32953 1.32584 4.48684 0.877091 5.6875 0.877151H5.72414C6.9198 0.882202 8.07046 1.33363 8.95059 2.14294C9.83072 2.95226 10.3769 4.06111 10.482 5.25215H9.1875C8.8394 5.25215 8.50556 5.39043 8.25942 5.63657C8.01328 5.88271 7.875 6.21655 7.875 6.56465V8.75215C7.875 9.10025 8.01328 9.43409 8.25942 9.68023C8.50556 9.92637 8.8394 10.0647 9.1875 10.0647H10.0625C10.4106 10.0647 10.7444 9.92637 10.9906 9.68023C11.2367 9.43409 11.375 9.10025 11.375 8.75215V5.68965C11.3778 4.94567 11.2339 4.20843 10.9513 3.52019C10.6687 2.83195 10.2532 2.20622 9.72836 1.67887ZM2.1875 6.12715C2.30353 6.12715 2.41481 6.17324 2.49686 6.25529C2.57891 6.33734 2.625 6.44862 2.625 6.56465V8.75215C2.625 8.86818 2.57891 8.97946 2.49686 9.06151C2.41481 9.14356 2.30353 9.18965 2.1875 9.18965H1.3125C1.19647 9.18965 1.08519 9.14356 1.00314 9.06151C0.921094 8.97946 0.875 8.86818 0.875 8.75215V6.12715H2.1875ZM10.5 8.75215C10.5 8.86818 10.4539 8.97946 10.3719 9.06151C10.2898 9.14356 10.1785 9.18965 10.0625 9.18965H9.1875C9.07147 9.18965 8.96019 9.14356 8.87814 9.06151C8.79609 8.97946 8.75 8.86818 8.75 8.75215V6.56465C8.75 6.44862 8.79609 6.33734 8.87814 6.25529C8.96019 6.17324 9.07147 6.12715 9.1875 6.12715H10.5V8.75215Z" fill="var(--fill-0, #383AD8)"/>
</svg>
