<svg preserveAspectRatio="none" width="100%" height="100%" overflow="visible" style="display: block;" viewBox="0 0 22 20" fill="none" xmlns="http://www.w3.org/2000/svg">
<path id="Vector" opacity="0.2" d="M20.994 20H0.993985C0.81896 19.9989 0.647276 19.952 0.496093 19.8638C0.344911 19.7756 0.219526 19.6492 0.132469 19.4974C0.045413 19.3456 -0.000264786 19.1735 1.15464e-06 18.9985C0.000267096 18.8235 0.0464673 18.6516 0.133985 18.5C0.957735 17.075 1.99398 13.4763 1.99398 9C1.99398 6.61305 2.9422 4.32387 4.63002 2.63604C6.31785 0.948211 8.60704 0 10.994 0C13.3809 0 15.6701 0.948211 17.3579 2.63604C19.0458 4.32387 19.994 6.61305 19.994 9C19.994 13.4775 21.0315 17.075 21.8565 18.5C21.9441 18.6518 21.9903 18.8239 21.9905 18.9991C21.9906 19.1744 21.9447 19.3466 21.8574 19.4985C21.77 19.6504 21.6443 19.7767 21.4928 19.8647C21.3412 19.9527 21.1692 19.9994 20.994 20Z" fill="var(--fill-0, #383AD8)"/>
</svg>
