<svg preserveAspectRatio="none" width="100%" height="100%" overflow="visible" style="display: block;" viewBox="0 0 27 36" fill="none" xmlns="http://www.w3.org/2000/svg">
<g id="icon">
<path id="Vector" d="M26.4198 0V2.93528C22.8923 2.93528 19.6571 4.17713 17.1269 6.24689C16.3488 6.88331 15.6382 7.59831 15.0051 8.37973C14.3045 9.24526 13.7013 10.1916 13.2099 11.2032C12.7185 10.1916 12.1152 9.24526 11.4146 8.37973C10.7815 7.59831 10.0709 6.88331 9.29285 6.24689C6.76267 4.17713 3.52743 2.93528 0 2.93528V0C4.20481 0 8.06318 1.46875 11.0892 3.92367C11.8518 4.54128 12.5613 5.22197 13.2099 5.95801C13.8585 5.22197 14.568 4.54128 15.3317 3.92367C18.3577 1.46875 22.215 0 26.4198 0Z" fill="var(--fill-0, #383AD8)"/>
<path id="Vector_2" d="M11.7422 17.6128C11.7422 19.9094 11.0848 22.0511 9.94585 23.8608C9.35924 24.7949 8.64424 25.6394 7.82408 26.3722C5.7488 28.2272 3.00721 29.355 -2.0906e-05 29.355V26.4186C2.67405 26.4186 5.0681 25.2299 6.68295 23.3516C8.00671 21.8109 8.80694 19.8065 8.80694 17.6128C8.80694 15.4191 8.00671 13.4146 6.68295 11.8739C5.0681 9.99455 2.67405 8.80582 -2.0906e-05 8.80582V5.87054C3.00721 5.87054 5.7488 6.99839 7.82408 8.85342C8.64424 9.58613 9.35924 10.4306 9.94585 11.3648C11.0848 13.1744 11.7422 15.3161 11.7422 17.6128Z" fill="var(--fill-0, #383AD8)"/>
<path id="Vector_3" d="M26.4197 5.87054V8.80582C23.7457 8.80582 21.3516 9.99455 19.7379 11.8728C18.413 13.4146 17.812 15.4279 17.6128 17.6128C17.4036 19.9094 17.2099 21.9194 16.4739 23.8608C16.0787 24.9067 15.5851 25.9062 15.0051 26.8459C14.4761 27.7048 13.8751 28.5149 13.2099 29.2676C12.5613 30.0036 11.8518 30.6843 11.0892 31.3019C8.06316 33.7568 4.20478 35.2256 -2.0906e-05 35.2256V32.2903C3.52741 32.2903 6.76265 31.0485 9.29283 28.9787C10.0709 28.3423 10.7815 27.6273 11.4146 26.8459C12.1152 25.9803 12.7184 25.034 13.2099 24.0224C14.1507 22.0865 14.4871 19.9869 14.6775 17.6128C14.8679 15.2387 15.335 13.1744 16.4739 11.3648C17.0605 10.4306 17.7766 9.58502 18.5968 8.85342C20.672 6.99728 23.4125 5.87054 26.4197 5.87054Z" fill="var(--fill-0, #383AD8)"/>
</g>
</svg>
