<svg preserveAspectRatio="none" width="100%" height="100%" overflow="visible" style="display: block;" viewBox="0 0 18 10" fill="none" xmlns="http://www.w3.org/2000/svg">
<path id="Vector" opacity="0.2" d="M11.25 5C11.25 5.49445 11.1034 5.9778 10.8287 6.38893C10.554 6.80005 10.1635 7.12048 9.70671 7.3097C9.24989 7.49892 8.74723 7.54843 8.26227 7.45196C7.77732 7.3555 7.33186 7.1174 6.98223 6.76777C6.6326 6.41814 6.3945 5.97268 6.29804 5.48773C6.20157 5.00277 6.25108 4.50011 6.4403 4.04329C6.62952 3.58648 6.94995 3.19603 7.36107 2.92133C7.7722 2.64662 8.25555 2.5 8.75 2.5C9.41304 2.5 10.0489 2.76339 10.5178 3.23223C10.9866 3.70107 11.25 4.33696 11.25 5ZM14.375 0C14.5073 0.780716 14.8792 1.50094 15.4391 2.06086C15.9991 2.62079 16.7193 2.99268 17.5 3.125V0H14.375ZM14.375 10H17.5V6.875C16.7193 7.00732 15.9991 7.37921 15.4391 7.93914C14.8792 8.49906 14.5073 9.21928 14.375 10ZM0 6.875V10H3.125C2.99268 9.21928 2.62079 8.49906 2.06086 7.93914C1.50094 7.37921 0.780716 7.00732 0 6.875ZM0 3.125C0.780716 2.99268 1.50094 2.62079 2.06086 2.06086C2.62079 1.50094 2.99268 0.780716 3.125 0H0V3.125Z" fill="var(--fill-0, #767676)"/>
</svg>
