<svg preserveAspectRatio="none" width="100%" height="100%" overflow="visible" style="display: block;" viewBox="0 0 26 23" fill="none" xmlns="http://www.w3.org/2000/svg">
<path id="Vector" d="M22.2362 3.83742C20.4201 2.01065 18.1026 0.764134 15.5773 0.255823C13.052 -0.252489 10.4327 0.000285685 8.05117 0.982115C5.66969 1.96394 3.63328 3.63063 2.19998 5.77098C0.766675 7.91133 0.00100764 10.429 0 13.0049V20.0049C0 20.8006 0.316071 21.5636 0.87868 22.1262C1.44129 22.6888 2.20435 23.0049 3 23.0049H5C5.79565 23.0049 6.55871 22.6888 7.12132 22.1262C7.68393 21.5636 8 20.8006 8 20.0049V15.0049C8 14.2093 7.68393 13.4462 7.12132 12.8836C6.55871 12.321 5.79565 12.0049 5 12.0049H2.045C2.29449 9.27192 3.55656 6.73089 5.58346 4.88069C7.61035 3.0305 10.2556 2.00478 13 2.00492H13.0837C15.8167 2.01646 18.4468 3.04829 20.4585 4.89816C22.4702 6.74802 23.7185 9.28254 23.9587 12.0049H21C20.2044 12.0049 19.4413 12.321 18.8787 12.8836C18.3161 13.4462 18 14.2093 18 15.0049V20.0049C18 20.8006 18.3161 21.5636 18.8787 22.1262C19.4413 22.6888 20.2044 23.0049 21 23.0049H23C23.7956 23.0049 24.5587 22.6888 25.1213 22.1262C25.6839 21.5636 26 20.8006 26 20.0049V13.0049C26.0065 11.3044 25.6774 9.61928 25.0316 8.04615C24.3857 6.47303 23.4358 5.0428 22.2362 3.83742ZM5 14.0049C5.26522 14.0049 5.51957 14.1103 5.70711 14.2978C5.89464 14.4853 6 14.7397 6 15.0049V20.0049C6 20.2701 5.89464 20.5245 5.70711 20.712C5.51957 20.8996 5.26522 21.0049 5 21.0049H3C2.73478 21.0049 2.48043 20.8996 2.29289 20.712C2.10536 20.5245 2 20.2701 2 20.0049V14.0049H5ZM24 20.0049C24 20.2701 23.8946 20.5245 23.7071 20.712C23.5196 20.8996 23.2652 21.0049 23 21.0049H21C20.7348 21.0049 20.4804 20.8996 20.2929 20.712C20.1054 20.5245 20 20.2701 20 20.0049V15.0049C20 14.7397 20.1054 14.4853 20.2929 14.2978C20.4804 14.1103 20.7348 14.0049 21 14.0049H24V20.0049Z" fill="var(--fill-0, #868686)"/>
</svg>
