<svg preserveAspectRatio="none" width="100%" height="100%" overflow="visible" style="display: block;" viewBox="0 0 24 9" fill="none" xmlns="http://www.w3.org/2000/svg">
<path id="Vector" opacity="0.2" d="M6 2V7C6 7.53043 5.78929 8.03914 5.41421 8.41421C5.03914 8.78929 4.53043 9 4 9H2C1.46957 9 0.960859 8.78929 0.585786 8.41421C0.210714 8.03914 0 7.53043 0 7V0H4C4.53043 0 5.03914 0.210714 5.41421 0.585787C5.78929 0.96086 6 1.46957 6 2ZM20 0C19.4696 0 18.9609 0.210714 18.5858 0.585787C18.2107 0.96086 18 1.46957 18 2V7C18 7.53043 18.2107 8.03914 18.5858 8.41421C18.9609 8.78929 19.4696 9 20 9H22C22.5304 9 23.0391 8.78929 23.4142 8.41421C23.7893 8.03914 24 7.53043 24 7V0H20Z" fill="var(--fill-0, #868686)"/>
</svg>
