<svg preserveAspectRatio="none" width="100%" height="100%" overflow="visible" style="display: block;" viewBox="0 0 11 4" fill="none" xmlns="http://www.w3.org/2000/svg">
<path id="Vector" opacity="0.2" d="M2.625 0.875V3.0625C2.625 3.29456 2.53281 3.51712 2.36872 3.68122C2.20462 3.84531 1.98206 3.9375 1.75 3.9375H0.875C0.642936 3.9375 0.420376 3.84531 0.256282 3.68122C0.0921872 3.51712 0 3.29456 0 3.0625V0H1.75C1.98206 0 2.20462 0.0921874 2.36872 0.256282C2.53281 0.420376 2.625 0.642936 2.625 0.875ZM8.75 0C8.51794 0 8.29538 0.0921874 8.13128 0.256282C7.96719 0.420376 7.875 0.642936 7.875 0.875V3.0625C7.875 3.29456 7.96719 3.51712 8.13128 3.68122C8.29538 3.84531 8.51794 3.9375 8.75 3.9375H9.625C9.85706 3.9375 10.0796 3.84531 10.2437 3.68122C10.4078 3.51712 10.5 3.29456 10.5 3.0625V0H8.75Z" fill="var(--fill-0, #383AD8)"/>
</svg>
