<svg preserveAspectRatio="none" width="100%" height="100%" overflow="visible" style="display: block;" viewBox="0 0 19 12" fill="none" xmlns="http://www.w3.org/2000/svg">
<path id="Vector" d="M9.375 2.5C8.75693 2.5 8.15275 2.68328 7.63884 3.02666C7.12494 3.37004 6.7244 3.8581 6.48788 4.42911C6.25135 5.00013 6.18947 5.62847 6.31005 6.23466C6.43062 6.84085 6.72825 7.39767 7.16529 7.83471C7.60233 8.27175 8.15915 8.56938 8.76534 8.68995C9.37153 8.81053 9.99987 8.74865 10.5709 8.51212C11.1419 8.2756 11.63 7.87506 11.9733 7.36116C12.3167 6.84725 12.5 6.24307 12.5 5.625C12.5 4.7962 12.1708 4.00134 11.5847 3.41529C10.9987 2.82924 10.2038 2.5 9.375 2.5ZM9.375 7.5C9.00416 7.5 8.64165 7.39003 8.33331 7.18401C8.02496 6.97798 7.78464 6.68514 7.64273 6.34253C7.50081 5.99992 7.46368 5.62292 7.53603 5.25921C7.60837 4.89549 7.78695 4.5614 8.04917 4.29917C8.3114 4.03695 8.64549 3.85837 9.00921 3.78603C9.37292 3.71368 9.74992 3.75081 10.0925 3.89273C10.4351 4.03464 10.728 4.27496 10.934 4.58331C11.14 4.89165 11.25 5.25416 11.25 5.625C11.25 6.12228 11.0525 6.59919 10.7008 6.95083C10.3492 7.30246 9.87228 7.5 9.375 7.5ZM18.125 0H0.625C0.45924 0 0.300268 0.0658481 0.183058 0.183058C0.065848 0.300269 0 0.45924 0 0.625V10.625C0 10.7908 0.065848 10.9497 0.183058 11.0669C0.300268 11.1842 0.45924 11.25 0.625 11.25H18.125C18.2908 11.25 18.4497 11.1842 18.5669 11.0669C18.6842 10.9497 18.75 10.7908 18.75 10.625V0.625C18.75 0.45924 18.6842 0.300269 18.5669 0.183058C18.4497 0.0658481 18.2908 0 18.125 0ZM1.25 1.25H2.91953C2.59718 1.99966 1.99966 2.59718 1.25 2.91953V1.25ZM1.25 10V8.33047C1.99966 8.65282 2.59718 9.25034 2.91953 10H1.25ZM17.5 10H15.8305C16.1528 9.25034 16.7503 8.65282 17.5 8.33047V10ZM17.5 7.00391C16.7903 7.21375 16.1444 7.59781 15.6211 8.12111C15.0978 8.64441 14.7137 9.29031 14.5039 10H4.24609C4.03625 9.29031 3.65219 8.64441 3.12889 8.12111C2.60559 7.59781 1.95969 7.21375 1.25 7.00391V4.24609C1.95969 4.03625 2.60559 3.65219 3.12889 3.12889C3.65219 2.60559 4.03625 1.95969 4.24609 1.25H14.5039C14.7137 1.95969 15.0978 2.60559 15.6211 3.12889C16.1444 3.65219 16.7903 4.03625 17.5 4.24609V7.00391ZM17.5 2.91953C16.7503 2.59718 16.1528 1.99966 15.8305 1.25H17.5V2.91953Z" fill="var(--fill-0, #767676)"/>
</svg>
