<svg preserveAspectRatio="none" width="100%" height="100%" overflow="visible" style="display: block;" viewBox="0 0 14 10" fill="none" xmlns="http://www.w3.org/2000/svg">
<path id="Vector" opacity="0.2" d="M13.125 0H0.625C0.45924 0 0.300269 0.0658481 0.183058 0.183058C0.0658481 0.300269 0 0.45924 0 0.625V9.375C0 9.54076 0.0658481 9.69973 0.183058 9.81694C0.300269 9.93415 0.45924 10 0.625 10H13.125C13.2908 10 13.4497 9.93415 13.5669 9.81694C13.6842 9.69973 13.75 9.54076 13.75 9.375V0.625C13.75 0.45924 13.6842 0.300269 13.5669 0.183058C13.4497 0.0658481 13.2908 0 13.125 0ZM6.875 5.625C6.56597 5.625 6.26387 5.53336 6.00692 5.36167C5.74997 5.18998 5.5497 4.94595 5.43144 4.66044C5.31318 4.37493 5.28223 4.06077 5.34252 3.75767C5.40281 3.45458 5.55163 3.17617 5.77015 2.95765C5.98867 2.73913 6.26708 2.59031 6.57017 2.53002C6.87327 2.46973 7.18743 2.50068 7.47294 2.61894C7.75845 2.7372 8.00248 2.93747 8.17417 3.19442C8.34586 3.45137 8.4375 3.75347 8.4375 4.0625C8.4375 4.4769 8.27288 4.87433 7.97985 5.16735C7.68683 5.46038 7.2894 5.625 6.875 5.625Z" fill="var(--fill-0, #767676)"/>
</svg>
