<svg preserveAspectRatio="none" width="100%" height="100%" overflow="visible" style="display: block;" viewBox="0 0 15 15" fill="none" xmlns="http://www.w3.org/2000/svg">
<path id="Vector" opacity="0.2" d="M15 7.5C15 8.98336 14.5601 10.4334 13.736 11.6668C12.9119 12.9001 11.7406 13.8614 10.3701 14.4291C8.99968 14.9968 7.49168 15.1453 6.03683 14.8559C4.58197 14.5665 3.2456 13.8522 2.1967 12.8033C1.14781 11.7544 0.433503 10.418 0.144114 8.96318C-0.145275 7.50832 0.00324965 6.00032 0.570907 4.62987C1.13856 3.25943 2.09986 2.08809 3.33323 1.26398C4.5666 0.439867 6.01664 0 7.5 0C9.48913 0 11.3968 0.790176 12.8033 2.1967C14.2098 3.60322 15 5.51088 15 7.5Z" fill="var(--fill-0, #767676)"/>
</svg>
