<svg preserveAspectRatio="none" width="100%" height="100%" overflow="visible" style="display: block;" viewBox="0 0 15 17" fill="none" xmlns="http://www.w3.org/2000/svg">
<path id="Vector" d="M13.75 5.625H11.25V3.75C11.25 2.75544 10.8549 1.80161 10.1517 1.09835C9.44839 0.395088 8.49456 0 7.5 0C6.50544 0 5.55161 0.395088 4.84835 1.09835C4.14509 1.80161 3.75 2.75544 3.75 3.75V5.625H1.25C0.918479 5.625 0.600537 5.7567 0.366116 5.99112C0.131696 6.22554 0 6.54348 0 6.875V15.625C0 15.9565 0.131696 16.2745 0.366116 16.5089C0.600537 16.7433 0.918479 16.875 1.25 16.875H13.75C14.0815 16.875 14.3995 16.7433 14.6339 16.5089C14.8683 16.2745 15 15.9565 15 15.625V6.875C15 6.54348 14.8683 6.22554 14.6339 5.99112C14.3995 5.7567 14.0815 5.625 13.75 5.625ZM5 3.75C5 3.08696 5.26339 2.45107 5.73223 1.98223C6.20107 1.51339 6.83696 1.25 7.5 1.25C8.16304 1.25 8.79893 1.51339 9.26777 1.98223C9.73661 2.45107 10 3.08696 10 3.75V5.625H5V3.75ZM13.75 15.625H1.25V6.875H13.75V15.625ZM7.5 8.125C6.97469 8.12518 6.46698 8.31439 6.06967 8.65805C5.67237 9.00171 5.412 9.47687 5.33616 9.99668C5.26031 10.5165 5.37406 11.0462 5.65661 11.4891C5.93916 11.9319 6.37164 12.2583 6.875 12.4086V13.75C6.875 13.9158 6.94085 14.0747 7.05806 14.1919C7.17527 14.3092 7.33424 14.375 7.5 14.375C7.66576 14.375 7.82473 14.3092 7.94194 14.1919C8.05915 14.0747 8.125 13.9158 8.125 13.75V12.4086C8.62836 12.2583 9.06084 11.9319 9.34339 11.4891C9.62594 11.0462 9.73969 10.5165 9.66384 9.99668C9.588 9.47687 9.32763 9.00171 8.93033 8.65805C8.53302 8.31439 8.02531 8.12518 7.5 8.125ZM7.5 11.25C7.31458 11.25 7.13332 11.195 6.97915 11.092C6.82498 10.989 6.70482 10.8426 6.63386 10.6713C6.56291 10.5 6.54434 10.3115 6.58051 10.1296C6.61669 9.94775 6.70598 9.7807 6.83709 9.64959C6.9682 9.51848 7.13525 9.42919 7.3171 9.39301C7.49896 9.35684 7.68746 9.37541 7.85877 9.44636C8.03007 9.51732 8.17649 9.63748 8.2795 9.79165C8.38252 9.94582 8.4375 10.1271 8.4375 10.3125C8.4375 10.5611 8.33873 10.7996 8.16291 10.9754C7.9871 11.1512 7.74864 11.25 7.5 11.25Z" fill="var(--fill-0, #767676)"/>
</svg>
