<svg preserveAspectRatio="none" width="100%" height="100%" overflow="visible" style="display: block;" viewBox="0 0 11 10" fill="none" xmlns="http://www.w3.org/2000/svg">
<path id="Vector" opacity="0.2" d="M10.497 10H0.496992C0.40948 9.99947 0.323638 9.97599 0.248047 9.93189C0.172456 9.88779 0.109763 9.82462 0.0662347 9.7487C0.0227065 9.67278 -0.000132393 9.58676 5.77321e-07 9.49925C0.000133548 9.41174 0.0232337 9.32579 0.0669924 9.25C0.478867 8.5375 0.996992 6.73813 0.996992 4.5C0.996992 3.30653 1.4711 2.16193 2.31501 1.31802C3.15893 0.474106 4.30352 0 5.49699 0C6.69047 0 7.83506 0.474106 8.67897 1.31802C9.52289 2.16193 9.99699 3.30653 9.99699 4.5C9.99699 6.73875 10.5157 8.5375 10.9282 9.25C10.9721 9.32588 10.9952 9.41194 10.9952 9.49956C10.9953 9.58718 10.9724 9.67328 10.9287 9.74924C10.885 9.8252 10.8221 9.88834 10.7464 9.93235C10.6706 9.97636 10.5846 9.99969 10.497 10Z" fill="var(--fill-0, white)"/>
</svg>
