<svg preserveAspectRatio="none" width="100%" height="100%" overflow="visible" style="display: block;" viewBox="0 0 22 12" fill="none" xmlns="http://www.w3.org/2000/svg">
<path id="Vector" d="M21.9245 0.617501C21.8489 0.434761 21.7207 0.278557 21.5563 0.168643C21.3919 0.0587293 21.1986 4.09536e-05 21.0008 3.09801e-07H1.00079C0.802892 -0.000155428 0.609399 0.0584092 0.444805 0.16828C0.280212 0.278151 0.151917 0.434387 0.076165 0.61721C0.000412494 0.800033 -0.0193921 1.00122 0.0192583 1.19531C0.0579087 1.38939 0.153276 1.56765 0.293288 1.7075L10.2933 11.7075C10.3862 11.8005 10.4964 11.8742 10.6178 11.9246C10.7392 11.9749 10.8694 12.0008 11.0008 12.0008C11.1322 12.0008 11.2623 11.9749 11.3837 11.9246C11.5051 11.8742 11.6154 11.8005 11.7083 11.7075L21.7083 1.7075C21.8481 1.56757 21.9433 1.38932 21.9818 1.1953C22.0202 1.00128 22.0003 0.800204 21.9245 0.617501ZM11.0008 9.58625L3.41454 2H18.587L11.0008 9.58625Z" fill="var(--fill-0, #383AD8)"/>
</svg>
