<svg preserveAspectRatio="none" width="100%" height="100%" overflow="visible" style="display: block;" viewBox="0 0 91 15" fill="none" xmlns="http://www.w3.org/2000/svg">
<g id="text">
<path id="Vector" d="M15.0119 0.000919239C13.5985 -0.0245376 12.381 0.461356 11.3583 1.4586C10.3333 2.45584 9.83528 3.64235 9.86073 5.01592C9.83528 6.38837 10.3311 7.5782 11.3483 8.58209C12.3644 9.58708 13.5796 10.0763 14.9919 10.0497C16.4042 10.0752 17.6284 9.58708 18.6655 8.58209C19.7015 7.5782 20.2062 6.38948 20.1818 5.01592C20.2073 3.64235 19.7059 2.45695 18.6754 1.4586C17.645 0.461356 16.4231 -0.0245376 15.0119 0.000919239ZM16.7894 6.90083C16.3168 7.39336 15.7236 7.64018 15.0119 7.64018C14.3002 7.64018 13.6903 7.39336 13.2233 6.90083C12.7562 6.4083 12.5237 5.78737 12.5237 5.03473C12.5237 4.2821 12.7562 3.63903 13.2233 3.13986C13.6903 2.64179 14.2858 2.39165 15.0119 2.39165C15.7379 2.39165 16.3168 2.644 16.7894 3.14871C17.262 3.65453 17.5 4.28209 17.5 5.03362C17.5 5.78515 17.2631 6.40719 16.7894 6.89972V6.90083Z" fill="var(--fill-0, #363636)"/>
<path id="Vector_2" d="M28.09 5.81273C28.09 6.35618 27.9217 6.80001 27.5853 7.14312C27.2477 7.48734 26.8204 7.6578 26.3024 7.6578C25.7845 7.6578 25.334 7.48956 24.9909 7.15309C24.6466 6.81661 24.4751 6.36946 24.4751 5.81273V0.215544H21.8519V5.59911C21.8519 6.93394 22.2692 8.01198 23.1048 8.83434C23.9416 9.65782 25.0064 10.0684 26.3024 10.0684C27.5985 10.0684 28.6246 9.6545 29.4602 8.82438C30.2959 7.99648 30.7142 6.92065 30.7142 5.59911V0.215544H28.09V5.81273Z" fill="var(--fill-0, #363636)"/>
<path id="Vector_3" d="M37.0729 4.0629L36.1409 3.6744C35.7524 3.51945 35.4868 3.38331 35.344 3.26599C35.2012 3.14977 35.1304 3.00146 35.1304 2.81883C35.1304 2.36614 35.4735 2.13924 36.1597 2.13924C36.95 2.13924 37.6694 2.44362 38.3169 3.05237L39.6385 1.43863C38.7574 0.480122 37.6052 0.000869891 36.1797 0.000869891C35.1171 0.000869891 34.2627 0.256545 33.6141 0.769002C32.9666 1.28035 32.6423 1.98318 32.6423 2.87749C32.6423 3.56483 32.8504 4.13152 33.2643 4.57757C33.6794 5.02583 34.3457 5.43646 35.2654 5.81278L36.2948 6.24001C36.6833 6.40825 36.9456 6.5477 37.0817 6.65839C37.2179 6.76907 37.2854 6.9207 37.2854 7.1155C37.2854 7.3745 37.1714 7.57262 36.9456 7.70876C36.7187 7.84379 36.4243 7.91241 36.0612 7.91241C35.0894 7.91241 34.1885 7.47854 33.3595 6.61079L32.0379 8.20461C32.971 9.44868 34.2992 10.0696 36.0225 10.0696C37.1105 10.0696 38.0037 9.79843 38.7043 9.25388C39.416 8.70932 39.7724 7.95779 39.7724 6.99929C39.7724 6.31306 39.5621 5.74969 39.1415 5.30807C38.7198 4.86866 38.0303 4.4525 37.0707 4.064L37.0729 4.0629Z" fill="var(--fill-0, #363636)"/>
<path id="Vector_4" d="M46.0858 0.000919239C44.6724 -0.0245376 43.4549 0.461356 42.4322 1.4586C41.4073 2.45584 40.9092 3.64235 40.9346 5.01592C40.9092 6.38837 41.405 7.5782 42.4222 8.58209C43.4383 9.58708 44.6536 10.0763 46.0659 10.0497C47.4782 10.0752 48.7023 9.58708 49.7394 8.58209C50.7754 7.5782 51.2801 6.38948 51.2557 5.01592C51.2812 3.64235 50.7798 2.45695 49.7494 1.4586C48.7189 0.461356 47.497 -0.0245376 46.0858 0.000919239ZM47.8633 6.90083C47.3907 7.39336 46.7975 7.64018 46.0858 7.64018C45.3741 7.64018 44.7642 7.39336 44.2972 6.90083C43.8301 6.4083 43.5977 5.78737 43.5977 5.03473C43.5977 4.2821 43.8301 3.63903 44.2972 3.13986C44.7642 2.64179 45.3597 2.39165 46.0858 2.39165C46.8119 2.39165 47.3907 2.644 47.8633 3.14871C48.3359 3.65453 48.5739 4.28209 48.5739 5.03362C48.5739 5.78515 48.3371 6.40719 47.8633 6.89972V6.90083Z" fill="var(--fill-0, #363636)"/>
<path id="Vector_5" d="M59.1639 5.81273C59.1639 6.35618 58.9956 6.80001 58.6592 7.14312C58.3216 7.48734 57.8944 7.6578 57.3764 7.6578C56.8584 7.6578 56.4079 7.48956 56.0648 7.15309C55.7206 6.81661 55.549 6.36946 55.549 5.81273V0.215544H52.9258V5.59911C52.9258 6.93394 53.3431 8.01198 54.1788 8.83434C55.0155 9.65782 56.0803 10.0684 57.3764 10.0684C58.6724 10.0684 59.6985 9.6545 60.5341 8.82438C61.3698 7.99648 61.7881 6.92065 61.7881 5.59911V0.215544H59.1639V5.81273Z" fill="var(--fill-0, #363636)"/>
<path id="Vector_6" d="M66.4732 1.36227V0.215606H64.0637V9.83608H66.688V5.0358C66.688 4.22008 66.9182 3.59804 67.3775 3.17081C67.8379 2.74247 68.4688 2.52996 69.2724 2.52996H69.973V0.216713C69.7273 0.139235 69.4406 0.100497 69.1174 0.100497C68.0283 0.100497 67.1473 0.521088 66.4743 1.36448L66.4732 1.36227Z" fill="var(--fill-0, #363636)"/>
<path id="Vector_7" d="M75.9444 2.3927C76.8376 2.3927 77.6091 2.85978 78.2577 3.79172L80.0839 2.37278C79.1896 0.792241 77.7972 0.0019713 75.9057 0.0019713C74.4679 0.0019713 73.2482 0.487866 72.2521 1.45965C71.2537 2.43144 70.7546 3.61684 70.7546 5.01697C70.7291 6.40271 71.2272 7.59918 72.2521 8.60306C73.2748 9.60695 74.4923 10.0962 75.9057 10.0696C76.8255 10.0696 77.6445 9.8593 78.3639 9.43871C79.0834 9.01812 79.6556 8.43151 80.0839 7.67997L78.2577 6.27985C77.6091 7.20072 76.8387 7.66005 75.9444 7.66005C75.2062 7.66005 74.6008 7.41102 74.127 6.91184C73.6544 6.41267 73.4176 5.78178 73.4176 5.01697C73.4176 4.25216 73.6544 3.64009 74.127 3.14091C74.5996 2.64284 75.2051 2.3927 75.9444 2.3927Z" fill="var(--fill-0, #363636)"/>
<path id="Vector_8" d="M90.6219 4.47126C90.6219 3.20173 90.198 2.13919 89.3491 1.28472C88.5002 0.429153 87.4144 0.00192052 86.0928 0.00192052C84.7071 -0.0235363 83.5151 0.462358 82.5167 1.4596C81.5195 2.45685 81.0325 3.64889 81.059 5.03573C81.0336 6.43586 81.535 7.63122 82.5654 8.62183C83.5959 9.61243 84.8488 10.095 86.3264 10.0684C87.7387 10.0684 89.0204 9.58919 90.1748 8.63068L89.0868 6.84317C88.2445 7.49066 87.3502 7.81496 86.405 7.81496C85.7043 7.81496 85.1188 7.64893 84.6462 7.3191C84.1725 6.98927 83.8593 6.51887 83.7032 5.91012H90.4471C90.5633 5.41759 90.6219 4.93833 90.6219 4.47236V4.47126ZM83.7032 4.06284C83.846 3.46737 84.1238 2.99476 84.5389 2.6439C84.9539 2.29414 85.4398 2.11926 85.9965 2.11926C86.5533 2.11926 87.0679 2.29746 87.4631 2.65386C87.8593 3.01025 88.063 3.47955 88.0752 4.06284H83.7021H83.7032Z" fill="var(--fill-0, #363636)"/>
<path id="Vector_9" d="M8.8623 0.215544H6.23803V5.81273C6.23803 6.35618 6.0698 6.80001 5.73332 7.14312C5.39574 7.48735 4.96851 7.6578 4.45052 7.6578C3.93253 7.6578 3.48205 7.48956 3.13894 7.15309C2.79472 6.81661 2.62316 6.36946 2.62316 5.81273V0.215544H0V5.59911C0 6.93394 0.417271 8.01198 1.25292 8.83435C2.08967 9.65782 3.15554 10.0684 4.45052 10.0684C5.10354 10.0684 5.69901 9.95777 6.23803 9.73862V10.7403C6.23803 11.2837 6.0698 11.7276 5.73332 12.0707C5.39574 12.4149 4.96851 12.5854 4.45052 12.5854C4.44388 12.5854 4.43724 12.5842 4.4306 12.5842V14.9949C4.43724 14.9949 4.44388 14.9949 4.45052 14.9949C5.71893 14.9949 6.77263 14.5809 7.60827 13.7508C8.44392 12.9229 8.8623 11.8471 8.8623 10.5256V5.142V0.215544Z" fill="var(--fill-0, #363636)"/>
</g>
</svg>
