<svg preserveAspectRatio="none" width="100%" height="100%" overflow="visible" style="display: block;" viewBox="0 0 17 15" fill="none" xmlns="http://www.w3.org/2000/svg">
<path id="Vector" opacity="0.2" d="M16.101 5.99688L13.6127 4.57969C13.5627 4.48906 13.5104 4.40078 13.4565 4.31328L13.4471 1.50078C12.6607 0.837119 11.756 0.327937 10.7807 0L8.28068 1.39766C8.17599 1.39766 8.07052 1.39766 7.96818 1.39766L5.46818 0C4.49311 0.329006 3.58898 0.839255 2.80334 1.50391L2.79084 4.31641C2.73615 4.40391 2.6838 4.49297 2.63459 4.58281L0.147085 5.99688C-0.0490284 6.98884 -0.0490284 8.0096 0.147085 9.00156L2.63537 10.4188C2.68537 10.5094 2.73771 10.5977 2.79162 10.6852L2.80099 13.4977C3.58749 14.162 4.49243 14.6717 5.46818 15L7.96818 13.6039C8.07287 13.6039 8.17834 13.6039 8.28068 13.6039L10.7807 15C11.7549 14.6707 12.6582 14.1605 13.4432 13.4961L13.4557 10.6836C13.5104 10.5961 13.5627 10.507 13.6119 10.4172L16.0994 9.00313C16.2963 8.01076 16.2968 6.98945 16.101 5.99688ZM8.12443 10.625C7.50636 10.625 6.90218 10.4417 6.38827 10.0983C5.87437 9.75496 5.47383 9.26691 5.23731 8.69589C5.00078 8.12487 4.9389 7.49653 5.05947 6.89034C5.18005 6.28415 5.47768 5.72733 5.91472 5.29029C6.35176 4.85325 6.90858 4.55562 7.51477 4.43505C8.12096 4.31447 8.7493 4.37635 9.32032 4.61288C9.89133 4.8494 10.3794 5.24994 10.7228 5.76384C11.0662 6.27775 11.2494 6.88193 11.2494 7.5C11.2494 8.3288 10.9202 9.12366 10.3341 9.70971C9.74809 10.2958 8.95323 10.625 8.12443 10.625Z" fill="var(--fill-0, #767676)"/>
</svg>
