<svg preserveAspectRatio="none" width="100%" height="100%" overflow="visible" style="display: block;" viewBox="0 0 12 12" fill="none" xmlns="http://www.w3.org/2000/svg">
<path id="Vector" opacity="0.2" d="M11.25 5.625C11.25 6.73752 10.9201 7.82506 10.302 8.75008C9.68394 9.67511 8.80543 10.3961 7.7776 10.8218C6.74976 11.2476 5.61876 11.359 4.52762 11.1419C3.43648 10.9249 2.4342 10.3891 1.64753 9.60248C0.860856 8.8158 0.325127 7.81353 0.108085 6.72238C-0.108957 5.63124 0.0024372 4.50024 0.42818 3.47241C0.853923 2.44457 1.57489 1.56607 2.49992 0.947984C3.42495 0.329901 4.51248 0 5.625 0C7.11685 0 8.54759 0.592632 9.60248 1.64752C10.6574 2.70242 11.25 4.13316 11.25 5.625Z" fill="var(--fill-0, #767676)"/>
</svg>
