<svg preserveAspectRatio="none" width="100%" height="100%" overflow="visible" style="display: block;" viewBox="0 0 15 14" fill="none" xmlns="http://www.w3.org/2000/svg">
<path id="Vector" opacity="0.2" d="M15 7.50038C15.0011 8.55219 14.7804 9.59242 14.3524 10.5532C13.9243 11.5139 13.2984 12.3736 12.5156 13.0762C12.045 12.1504 11.3273 11.3731 10.442 10.8302C9.55675 10.2873 8.53847 10.0001 7.5 10.0004C8.11807 10.0004 8.72225 9.8171 9.23616 9.47372C9.75006 9.13034 10.1506 8.64228 10.3871 8.07126C10.6236 7.50024 10.6855 6.87191 10.565 6.26572C10.4444 5.65953 10.1467 5.10271 9.70971 4.66567C9.27267 4.22863 8.71585 3.931 8.10966 3.81042C7.50347 3.68984 6.87513 3.75173 6.30412 3.98825C5.7331 4.22478 5.24504 4.62531 4.90166 5.13922C4.55828 5.65312 4.375 6.25731 4.375 6.87538C4.375 7.70418 4.70424 8.49903 5.29029 9.08508C5.87634 9.67114 6.6712 10.0004 7.5 10.0004C6.46153 10.0001 5.44325 10.2873 4.55798 10.8302C3.67271 11.3731 2.95501 12.1504 2.48438 13.0762C1.55489 12.2401 0.849135 11.185 0.431297 10.0067C0.0134593 8.82839 -0.103208 7.56435 0.0919034 6.3295C0.287015 5.09464 0.787716 3.92814 1.54848 2.93608C2.30924 1.94402 3.30592 1.15787 4.44789 0.649116C5.58987 0.14036 6.8409 -0.0748599 8.08724 0.0230273C9.33358 0.120914 10.5357 0.528803 11.5842 1.2096C12.6328 1.8904 13.4945 2.82251 14.0911 3.92118C14.6876 5.01984 15.0001 6.2502 15 7.50038Z" fill="var(--fill-0, #383AD8)"/>
</svg>
