<svg preserveAspectRatio="none" width="100%" height="100%" overflow="visible" style="display: block;" viewBox="0 0 13 17" fill="none" xmlns="http://www.w3.org/2000/svg">
<path id="Vector" d="M12.5 6.24992C12.5 5.04044 12.149 3.85695 11.4897 2.84297C10.8304 1.82899 9.89103 1.0281 8.78555 0.537431C7.68007 0.0467583 6.45597 -0.112616 5.2617 0.0786373C4.06743 0.269891 2.95432 0.803554 2.05734 1.61491C1.16037 2.42626 0.518085 3.48044 0.208378 4.6496C-0.101328 5.81875 -0.0651477 7.05266 0.312532 8.20166C0.690211 9.35066 1.39316 10.3654 2.33613 11.1228C3.2791 11.8802 4.42158 12.3477 5.625 12.4687V16.2499C5.625 16.4157 5.69085 16.5747 5.80806 16.6919C5.92527 16.8091 6.08424 16.8749 6.25 16.8749C6.41576 16.8749 6.57473 16.8091 6.69194 16.6919C6.80915 16.5747 6.875 16.4157 6.875 16.2499V12.4687C8.41591 12.3119 9.84393 11.5893 10.8829 10.4406C11.9219 9.29192 12.4981 7.79879 12.5 6.24992ZM6.25 11.2499C5.26109 11.2499 4.29439 10.9567 3.47215 10.4073C2.6499 9.85787 2.00904 9.07697 1.6306 8.16334C1.25216 7.24971 1.15315 6.24438 1.34607 5.27447C1.539 4.30457 2.0152 3.41365 2.71447 2.71439C3.41373 2.01513 4.30464 1.53892 5.27455 1.346C6.24445 1.15307 7.24979 1.25209 8.16342 1.63053C9.07705 2.00897 9.85794 2.64983 10.4073 3.47207C10.9568 4.29432 11.25 5.26102 11.25 6.24992C11.2486 7.57556 10.7213 8.84649 9.78394 9.78386C8.84657 10.7212 7.57564 11.2485 6.25 11.2499Z" fill="var(--fill-0, #767676)"/>
</svg>
