<svg preserveAspectRatio="none" width="100%" height="100%" overflow="visible" style="display: block;" viewBox="0 0 13 17" fill="none" xmlns="http://www.w3.org/2000/svg">
<path id="Vector" opacity="0.2" d="M6.25 0C4.5924 0 3.00269 0.65848 1.83058 1.83058C0.65848 3.00269 0 4.5924 0 6.25C0 11.875 6.25 16.25 6.25 16.25C6.25 16.25 12.5 11.875 12.5 6.25C12.5 4.5924 11.8415 3.00269 10.6694 1.83058C9.49731 0.65848 7.9076 0 6.25 0ZM6.25 8.75C5.75555 8.75 5.2722 8.60338 4.86107 8.32867C4.44995 8.05397 4.12952 7.66352 3.9403 7.20671C3.75108 6.74989 3.70157 6.24723 3.79804 5.76227C3.8945 5.27732 4.1326 4.83186 4.48223 4.48223C4.83186 4.1326 5.27732 3.8945 5.76227 3.79804C6.24723 3.70157 6.74989 3.75108 7.20671 3.9403C7.66352 4.12952 8.05397 4.44995 8.32867 4.86107C8.60338 5.2722 8.75 5.75555 8.75 6.25C8.75 6.91304 8.48661 7.54893 8.01777 8.01777C7.54893 8.48661 6.91304 8.75 6.25 8.75Z" fill="var(--fill-0, #767676)"/>
</svg>
