<svg preserveAspectRatio="none" width="100%" height="100%" overflow="visible" style="display: block;" viewBox="0 0 10 10" fill="none" xmlns="http://www.w3.org/2000/svg">
<path id="Vector" opacity="0.2" d="M10 5C10 5.98891 9.70676 6.9556 9.15735 7.77785C8.60794 8.6001 7.82705 9.24096 6.91342 9.6194C5.99979 9.99784 4.99446 10.0969 4.02455 9.90393C3.05465 9.711 2.16373 9.2348 1.46447 8.53553C0.765205 7.83627 0.289002 6.94536 0.0960758 5.97545C-0.0968503 5.00555 0.00216641 4.00021 0.380605 3.08658C0.759043 2.17295 1.39991 1.39206 2.22215 0.842652C3.0444 0.293245 4.0111 0 5 0C6.32608 0 7.59785 0.526784 8.53554 1.46447C9.47322 2.40215 10 3.67392 10 5Z" fill="var(--fill-0, #767676)"/>
</svg>
